<?xml version="1.0" encoding="UTF-8"?>
<!DOCTYPE svg PUBLIC "-//W3C//DTD SVG 1.1//EN" "http://www.w3.org/Graphics/SVG/1.1/DTD/svg11.dtd">
<svg width="208mm" height="109mm" viewBox="0 0 20800 10900" version="1.1" xmlns="http://www.w3.org/2000/svg" xmlns:xlink="http://www.w3.org/1999/xlink" stroke-width="28.222" stroke-linejoin="round" xml:space="preserve">
 <path fill="rgb(255,255,255)" stroke="none" d="M 10388,10852 L -13,10852 -13,-13 20789,-13 20789,10852 10388,10852 Z "/>
 <path fill="none" stroke="rgb(179,179,179)" stroke-linejoin="round" d="M 10414,9007 L 2927,9007 2927,1535 17901,1535 17901,9007 10414,9007 Z "/>
 <path fill="none" stroke="rgb(179,179,179)" stroke-linejoin="round" d="M 17901,9006 L 2927,9006 "/>
 <path fill="none" stroke="rgb(179,179,179)" stroke-linejoin="round" d="M 17901,7760 L 2927,7760 "/>
 <path fill="none" stroke="rgb(179,179,179)" stroke-linejoin="round" d="M 17901,6515 L 2927,6515 "/>
 <path fill="none" stroke="rgb(179,179,179)" stroke-linejoin="round" d="M 17901,5270 L 2927,5270 "/>
 <path fill="none" stroke="rgb(179,179,179)" stroke-linejoin="round" d="M 17901,4025 L 2927,4025 "/>
 <path fill="none" stroke="rgb(179,179,179)" stroke-linejoin="round" d="M 17901,2779 L 2927,2779 "/>
 <path fill="none" stroke="rgb(179,179,179)" stroke-linejoin="round" d="M 17901,1534 L 2927,1534 "/>
 <path fill="none" stroke="rgb(179,179,179)" stroke-linejoin="round" d="M 2927,9156 L 2927,9006 "/>
 <path fill="none" stroke="rgb(179,179,179)" stroke-linejoin="round" d="M 5422,9156 L 5422,9006 "/>
 <path fill="none" stroke="rgb(179,179,179)" stroke-linejoin="round" d="M 7918,9156 L 7918,9006 "/>
 <path fill="none" stroke="rgb(179,179,179)" stroke-linejoin="round" d="M 10413,9156 L 10413,9006 "/>
 <path fill="none" stroke="rgb(179,179,179)" stroke-linejoin="round" d="M 12909,9156 L 12909,9006 "/>
 <path fill="none" stroke="rgb(179,179,179)" stroke-linejoin="round" d="M 15405,9156 L 15405,9006 "/>
 <path fill="none" stroke="rgb(179,179,179)" stroke-linejoin="round" d="M 17901,9156 L 17901,9006 "/>
 <path fill="none" stroke="rgb(179,179,179)" stroke-linejoin="round" d="M 2927,9006 L 17901,9006 "/>
 <path fill="none" stroke="rgb(179,179,179)" stroke-linejoin="round" d="M 2777,9006 L 2927,9006 "/>
 <path fill="none" stroke="rgb(179,179,179)" stroke-linejoin="round" d="M 2777,7760 L 2927,7760 "/>
 <path fill="none" stroke="rgb(179,179,179)" stroke-linejoin="round" d="M 2777,6515 L 2927,6515 "/>
 <path fill="none" stroke="rgb(179,179,179)" stroke-linejoin="round" d="M 2777,5270 L 2927,5270 "/>
 <path fill="none" stroke="rgb(179,179,179)" stroke-linejoin="round" d="M 2777,4025 L 2927,4025 "/>
 <path fill="none" stroke="rgb(179,179,179)" stroke-linejoin="round" d="M 2777,2779 L 2927,2779 "/>
 <path fill="none" stroke="rgb(179,179,179)" stroke-linejoin="round" d="M 2777,1534 L 2927,1534 "/>
 <path fill="none" stroke="rgb(179,179,179)" stroke-linejoin="round" d="M 2927,9006 L 2927,1534 "/>
 <path fill="none" stroke="rgb(179,179,179)" stroke-linejoin="round" d="M 18051,9006 L 17901,9006 "/>
 <path fill="none" stroke="rgb(179,179,179)" stroke-linejoin="round" d="M 18051,7938 L 17901,7938 "/>
 <path fill="none" stroke="rgb(179,179,179)" stroke-linejoin="round" d="M 18051,6870 L 17901,6870 "/>
 <path fill="none" stroke="rgb(179,179,179)" stroke-linejoin="round" d="M 18051,5803 L 17901,5803 "/>
 <path fill="none" stroke="rgb(179,179,179)" stroke-linejoin="round" d="M 18051,4736 L 17901,4736 "/>
 <path fill="none" stroke="rgb(179,179,179)" stroke-linejoin="round" d="M 18051,3669 L 17901,3669 "/>
 <path fill="none" stroke="rgb(179,179,179)" stroke-linejoin="round" d="M 18051,2601 L 17901,2601 "/>
 <path fill="none" stroke="rgb(179,179,179)" stroke-linejoin="round" d="M 18051,1534 L 17901,1534 "/>
 <path fill="none" stroke="rgb(179,179,179)" stroke-linejoin="round" d="M 17901,9006 L 17901,1534 "/>
 <path fill="rgb(247,150,70)" stroke="none" d="M 2786,8848 L 2927,8989 3068,8848 2927,8707 2786,8848 Z "/>
 <path fill="none" stroke="rgb(247,150,70)" stroke-linejoin="round" d="M 2786,8848 L 2927,8989 3068,8848 2927,8707 2786,8848 Z "/>
 <path fill="rgb(247,150,70)" stroke="none" d="M 4033,8822 L 4174,8963 4315,8822 4174,8681 4033,8822 Z "/>
 <path fill="none" stroke="rgb(247,150,70)" stroke-linejoin="round" d="M 4033,8822 L 4174,8963 4315,8822 4174,8681 4033,8822 Z "/>
 <path fill="rgb(247,150,70)" stroke="none" d="M 5281,8801 L 5422,8942 5563,8801 5422,8660 5281,8801 Z "/>
 <path fill="none" stroke="rgb(247,150,70)" stroke-linejoin="round" d="M 5281,8801 L 5422,8942 5563,8801 5422,8660 5281,8801 Z "/>
 <path fill="rgb(247,150,70)" stroke="none" d="M 6529,8781 L 6670,8922 6811,8781 6670,8640 6529,8781 Z "/>
 <path fill="none" stroke="rgb(247,150,70)" stroke-linejoin="round" d="M 6529,8781 L 6670,8922 6811,8781 6670,8640 6529,8781 Z "/>
 <path fill="rgb(247,150,70)" stroke="none" d="M 7777,8689 L 7918,8830 8059,8689 7918,8548 7777,8689 Z "/>
 <path fill="none" stroke="rgb(247,150,70)" stroke-linejoin="round" d="M 7777,8689 L 7918,8830 8059,8689 7918,8548 7777,8689 Z "/>
 <path fill="rgb(247,150,70)" stroke="none" d="M 9025,8490 L 9166,8631 9307,8490 9166,8349 9025,8490 Z "/>
 <path fill="none" stroke="rgb(247,150,70)" stroke-linejoin="round" d="M 9025,8490 L 9166,8631 9307,8490 9166,8349 9025,8490 Z "/>
 <path fill="rgb(247,150,70)" stroke="none" d="M 10273,8114 L 10413,8255 10554,8114 10413,7973 10273,8114 Z "/>
 <path fill="none" stroke="rgb(247,150,70)" stroke-linejoin="round" d="M 10273,8114 L 10413,8255 10554,8114 10413,7973 10273,8114 Z "/>
 <path fill="rgb(247,150,70)" stroke="none" d="M 11520,7520 L 11661,7661 11802,7520 11661,7379 11520,7520 Z "/>
 <path fill="none" stroke="rgb(247,150,70)" stroke-linejoin="round" d="M 11520,7520 L 11661,7661 11802,7520 11661,7379 11520,7520 Z "/>
 <path fill="rgb(247,150,70)" stroke="none" d="M 12768,6707 L 12909,6848 13050,6707 12909,6566 12768,6707 Z "/>
 <path fill="none" stroke="rgb(247,150,70)" stroke-linejoin="round" d="M 12768,6707 L 12909,6848 13050,6707 12909,6566 12768,6707 Z "/>
 <path fill="rgb(247,150,70)" stroke="none" d="M 14016,5676 L 14157,5817 14298,5676 14157,5535 14016,5676 Z "/>
 <path fill="none" stroke="rgb(247,150,70)" stroke-linejoin="round" d="M 14016,5676 L 14157,5817 14298,5676 14157,5535 14016,5676 Z "/>
 <path fill="rgb(247,150,70)" stroke="none" d="M 15264,4163 L 15405,4304 15546,4163 15405,4022 15264,4163 Z "/>
 <path fill="none" stroke="rgb(247,150,70)" stroke-linejoin="round" d="M 15264,4163 L 15405,4304 15546,4163 15405,4022 15264,4163 Z "/>
 <path fill="rgb(247,150,70)" stroke="none" d="M 16512,2397 L 16653,2538 16794,2397 16653,2256 16512,2397 Z "/>
 <path fill="none" stroke="rgb(247,150,70)" stroke-linejoin="round" d="M 16512,2397 L 16653,2538 16794,2397 16653,2256 16512,2397 Z "/>
 <path fill="rgb(75,172,198)" stroke="none" d="M 2786,2660 L 2786,2942 3068,2942 3068,2660 2786,2660 Z "/>
 <path fill="none" stroke="rgb(75,172,198)" stroke-linejoin="round" d="M 2786,2660 L 2786,2942 3068,2942 3068,2660 2786,2660 Z "/>
 <path fill="rgb(75,172,198)" stroke="none" d="M 4033,2475 L 4033,2757 4315,2757 4315,2475 4033,2475 Z "/>
 <path fill="none" stroke="rgb(75,172,198)" stroke-linejoin="round" d="M 4033,2475 L 4033,2757 4315,2757 4315,2475 4033,2475 Z "/>
 <path fill="rgb(75,172,198)" stroke="none" d="M 5281,2744 L 5281,3026 5563,3026 5563,2744 5281,2744 Z "/>
 <path fill="none" stroke="rgb(75,172,198)" stroke-linejoin="round" d="M 5281,2744 L 5281,3026 5563,3026 5563,2744 5281,2744 Z "/>
 <path fill="rgb(75,172,198)" stroke="none" d="M 6529,4137 L 6529,4419 6811,4419 6811,4137 6529,4137 Z "/>
 <path fill="none" stroke="rgb(75,172,198)" stroke-linejoin="round" d="M 6529,4137 L 6529,4419 6811,4419 6811,4137 6529,4137 Z "/>
 <path fill="rgb(75,172,198)" stroke="none" d="M 7777,6383 L 7777,6665 8059,6665 8059,6383 7777,6383 Z "/>
 <path fill="none" stroke="rgb(75,172,198)" stroke-linejoin="round" d="M 7777,6383 L 7777,6665 8059,6665 8059,6383 7777,6383 Z "/>
 <path fill="rgb(75,172,198)" stroke="none" d="M 9025,7762 L 9025,8044 9307,8044 9307,7762 9025,7762 Z "/>
 <path fill="none" stroke="rgb(75,172,198)" stroke-linejoin="round" d="M 9025,7762 L 9025,8044 9307,8044 9307,7762 9025,7762 Z "/>
 <path fill="rgb(75,172,198)" stroke="none" d="M 10273,8142 L 10273,8424 10554,8424 10554,8142 10273,8142 Z "/>
 <path fill="none" stroke="rgb(75,172,198)" stroke-linejoin="round" d="M 10273,8142 L 10273,8424 10554,8424 10554,8142 10273,8142 Z "/>
 <path fill="rgb(75,172,198)" stroke="none" d="M 11520,8279 L 11520,8561 11802,8561 11802,8279 11520,8279 Z "/>
 <path fill="none" stroke="rgb(75,172,198)" stroke-linejoin="round" d="M 11520,8279 L 11520,8561 11802,8561 11802,8279 11520,8279 Z "/>
 <path fill="rgb(75,172,198)" stroke="none" d="M 12768,8258 L 12768,8540 13050,8540 13050,8258 12768,8258 Z "/>
 <path fill="none" stroke="rgb(75,172,198)" stroke-linejoin="round" d="M 12768,8258 L 12768,8540 13050,8540 13050,8258 12768,8258 Z "/>
 <path fill="rgb(75,172,198)" stroke="none" d="M 14016,8228 L 14016,8510 14298,8510 14298,8228 14016,8228 Z "/>
 <path fill="none" stroke="rgb(75,172,198)" stroke-linejoin="round" d="M 14016,8228 L 14016,8510 14298,8510 14298,8228 14016,8228 Z "/>
 <path fill="rgb(75,172,198)" stroke="none" d="M 15264,8250 L 15264,8532 15546,8532 15546,8250 15264,8250 Z "/>
 <path fill="none" stroke="rgb(75,172,198)" stroke-linejoin="round" d="M 15264,8250 L 15264,8532 15546,8532 15546,8250 15264,8250 Z "/>
 <path fill="rgb(75,172,198)" stroke="none" d="M 16512,8259 L 16512,8541 16794,8541 16794,8259 16512,8259 Z "/>
 <path fill="none" stroke="rgb(75,172,198)" stroke-linejoin="round" d="M 16512,8259 L 16512,8541 16794,8541 16794,8259 16512,8259 Z "/>
 <text class="SVGTextShape"><tspan class="TextParagraph"><tspan class="TextPosition" x="2831" y="9574"><tspan font-family="Arial, sans-serif" font-size="353px" font-weight="400" lengthAdjust="spacingAndGlyphs" textLength="191" fill="rgb(0,0,0)" stroke="none" style="white-space: pre">0</tspan></tspan></tspan></text>
 <text class="SVGTextShape"><tspan class="TextParagraph"><tspan class="TextPosition" x="5230" y="9574"><tspan font-family="Arial, sans-serif" font-size="353px" font-weight="400" lengthAdjust="spacingAndGlyphs" textLength="382" fill="rgb(0,0,0)" stroke="none" style="white-space: pre">10</tspan></tspan></tspan></text>
 <text class="SVGTextShape"><tspan class="TextParagraph"><tspan class="TextPosition" x="7726" y="9574"><tspan font-family="Arial, sans-serif" font-size="353px" font-weight="400" lengthAdjust="spacingAndGlyphs" textLength="382" fill="rgb(0,0,0)" stroke="none" style="white-space: pre">20</tspan></tspan></tspan></text>
 <text class="SVGTextShape"><tspan class="TextParagraph"><tspan class="TextPosition" x="10222" y="9574"><tspan font-family="Arial, sans-serif" font-size="353px" font-weight="400" lengthAdjust="spacingAndGlyphs" textLength="382" fill="rgb(0,0,0)" stroke="none" style="white-space: pre">30</tspan></tspan></tspan></text>
 <text class="SVGTextShape"><tspan class="TextParagraph"><tspan class="TextPosition" x="12717" y="9574"><tspan font-family="Arial, sans-serif" font-size="353px" font-weight="400" lengthAdjust="spacingAndGlyphs" textLength="382" fill="rgb(0,0,0)" stroke="none" style="white-space: pre">40</tspan></tspan></tspan></text>
 <text class="SVGTextShape"><tspan class="TextParagraph"><tspan class="TextPosition" x="15213" y="9574"><tspan font-family="Arial, sans-serif" font-size="353px" font-weight="400" lengthAdjust="spacingAndGlyphs" textLength="382" fill="rgb(0,0,0)" stroke="none" style="white-space: pre">50</tspan></tspan></tspan></text>
 <text class="SVGTextShape"><tspan class="TextParagraph"><tspan class="TextPosition" x="17709" y="9574"><tspan font-family="Arial, sans-serif" font-size="353px" font-weight="400" lengthAdjust="spacingAndGlyphs" textLength="382" fill="rgb(0,0,0)" stroke="none" style="white-space: pre">60</tspan></tspan></tspan></text>
 <text class="SVGTextShape"><tspan class="TextParagraph"><tspan class="TextPosition" x="1606" y="9126"><tspan font-family="Arial, sans-serif" font-size="353px" font-weight="400" lengthAdjust="spacingAndGlyphs" textLength="1070" fill="rgb(0,0,0)" stroke="none" style="white-space: pre">0,00 %</tspan></tspan></tspan></text>
 <text class="SVGTextShape"><tspan class="TextParagraph"><tspan class="TextPosition" x="1606" y="7880"><tspan font-family="Arial, sans-serif" font-size="353px" font-weight="400" lengthAdjust="spacingAndGlyphs" textLength="1070" fill="rgb(0,0,0)" stroke="none" style="white-space: pre">2,00 %</tspan></tspan></tspan></text>
 <text class="SVGTextShape"><tspan class="TextParagraph"><tspan class="TextPosition" x="1606" y="6635"><tspan font-family="Arial, sans-serif" font-size="353px" font-weight="400" lengthAdjust="spacingAndGlyphs" textLength="1070" fill="rgb(0,0,0)" stroke="none" style="white-space: pre">4,00 %</tspan></tspan></tspan></text>
 <text class="SVGTextShape"><tspan class="TextParagraph"><tspan class="TextPosition" x="1606" y="5390"><tspan font-family="Arial, sans-serif" font-size="353px" font-weight="400" lengthAdjust="spacingAndGlyphs" textLength="1070" fill="rgb(0,0,0)" stroke="none" style="white-space: pre">6,00 %</tspan></tspan></tspan></text>
 <text class="SVGTextShape"><tspan class="TextParagraph"><tspan class="TextPosition" x="1606" y="4145"><tspan font-family="Arial, sans-serif" font-size="353px" font-weight="400" lengthAdjust="spacingAndGlyphs" textLength="1070" fill="rgb(0,0,0)" stroke="none" style="white-space: pre">8,00 %</tspan></tspan></tspan></text>
 <text class="SVGTextShape"><tspan class="TextParagraph"><tspan class="TextPosition" x="1415" y="2899"><tspan font-family="Arial, sans-serif" font-size="353px" font-weight="400" lengthAdjust="spacingAndGlyphs" textLength="1262" fill="rgb(0,0,0)" stroke="none" style="white-space: pre">10,00 %</tspan></tspan></tspan></text>
 <text class="SVGTextShape"><tspan class="TextParagraph"><tspan class="TextPosition" x="1415" y="1654"><tspan font-family="Arial, sans-serif" font-size="353px" font-weight="400" lengthAdjust="spacingAndGlyphs" textLength="1262" fill="rgb(0,0,0)" stroke="none" style="white-space: pre">12,00 %</tspan></tspan></tspan></text>
 <text class="SVGTextShape"><tspan class="TextParagraph"><tspan class="TextPosition" x="18151" y="9126"><tspan font-family="Arial, sans-serif" font-size="353px" font-weight="400" lengthAdjust="spacingAndGlyphs" textLength="669" fill="rgb(0,0,0)" stroke="none" style="white-space: pre">0,00</tspan></tspan></tspan></text>
 <text class="SVGTextShape"><tspan class="TextParagraph"><tspan class="TextPosition" x="18151" y="8058"><tspan font-family="Arial, sans-serif" font-size="353px" font-weight="400" lengthAdjust="spacingAndGlyphs" textLength="1052" fill="rgb(0,0,0)" stroke="none" style="white-space: pre">200,00</tspan></tspan></tspan></text>
 <text class="SVGTextShape"><tspan class="TextParagraph"><tspan class="TextPosition" x="18151" y="6990"><tspan font-family="Arial, sans-serif" font-size="353px" font-weight="400" lengthAdjust="spacingAndGlyphs" textLength="1052" fill="rgb(0,0,0)" stroke="none" style="white-space: pre">400,00</tspan></tspan></tspan></text>
 <text class="SVGTextShape"><tspan class="TextParagraph"><tspan class="TextPosition" x="18151" y="5923"><tspan font-family="Arial, sans-serif" font-size="353px" font-weight="400" lengthAdjust="spacingAndGlyphs" textLength="1052" fill="rgb(0,0,0)" stroke="none" style="white-space: pre">600,00</tspan></tspan></tspan></text>
 <text class="SVGTextShape"><tspan class="TextParagraph"><tspan class="TextPosition" x="18151" y="4856"><tspan font-family="Arial, sans-serif" font-size="353px" font-weight="400" lengthAdjust="spacingAndGlyphs" textLength="1052" fill="rgb(0,0,0)" stroke="none" style="white-space: pre">800,00</tspan></tspan></tspan></text>
 <text class="SVGTextShape"><tspan class="TextParagraph"><tspan class="TextPosition" x="18151" y="3789"><tspan font-family="Arial, sans-serif" font-size="353px" font-weight="400" lengthAdjust="spacingAndGlyphs" textLength="1243" fill="rgb(0,0,0)" stroke="none" style="white-space: pre">1000,00</tspan></tspan></tspan></text>
 <text class="SVGTextShape"><tspan class="TextParagraph"><tspan class="TextPosition" x="18151" y="2721"><tspan font-family="Arial, sans-serif" font-size="353px" font-weight="400" lengthAdjust="spacingAndGlyphs" textLength="1243" fill="rgb(0,0,0)" stroke="none" style="white-space: pre">1200,00</tspan></tspan></tspan></text>
 <text class="SVGTextShape"><tspan class="TextParagraph"><tspan class="TextPosition" x="18151" y="1654"><tspan font-family="Arial, sans-serif" font-size="353px" font-weight="400" lengthAdjust="spacingAndGlyphs" textLength="1243" fill="rgb(0,0,0)" stroke="none" style="white-space: pre">1400,00</tspan></tspan></tspan></text>
 <text class="SVGTextShape"><tspan class="TextParagraph"><tspan class="TextPosition" x="4537" y="875"><tspan font-family="Arial, sans-serif" font-size="459px" font-weight="400" lengthAdjust="spacingAndGlyphs" textLength="11701" fill="rgb(0,0,0)" stroke="none" style="white-space: pre">Effet de t : blocs de 12x12, bruit de 10% - image 1800x338</tspan></tspan></tspan></text>
 <text class="SVGTextShape"><tspan class="TextParagraph"><tspan class="TextPosition" x="8724" y="10257"><tspan font-family="Arial, sans-serif" font-size="318px" font-weight="400" lengthAdjust="spacingAndGlyphs" textLength="3361" fill="rgb(0,0,0)" stroke="none" style="white-space: pre">valeur de t (t_max = 55)</tspan></tspan></tspan></text>
 <text class="SVGTextShape" transform="rotate(-90 824 7562)"><tspan class="TextParagraph"><tspan class="TextPosition" x="824" y="7562"><tspan font-family="Arial, sans-serif" font-size="318px" font-weight="400" lengthAdjust="spacingAndGlyphs" textLength="4137" fill="rgb(0,0,0)" stroke="none" style="white-space: pre">taux d&apos;erreur après décodage</tspan></tspan></tspan></text>
 <text class="SVGTextShape" transform="rotate(-90 20198 7311)"><tspan class="TextParagraph"><tspan class="TextPosition" x="20198" y="7311"><tspan font-family="Arial, sans-serif" font-size="318px" font-weight="400" lengthAdjust="spacingAndGlyphs" textLength="3636" fill="rgb(0,0,0)" stroke="none" style="white-space: pre">durée du décodage (en s)</tspan></tspan></tspan></text>
</svg>