<?xml version="1.0" encoding="UTF-8"?>
<!DOCTYPE svg PUBLIC "-//W3C//DTD SVG 1.1//EN" "http://www.w3.org/Graphics/SVG/1.1/DTD/svg11.dtd">
<svg width="208mm" height="117mm" viewBox="0 0 20800 11700" version="1.1" xmlns="http://www.w3.org/2000/svg" xmlns:xlink="http://www.w3.org/1999/xlink" stroke-width="28.222" stroke-linejoin="round" xml:space="preserve">
 <path fill="rgb(255,255,255)" stroke="none" d="M 10369,11666 L -13,11666 -13,-13 20750,-13 20750,11666 10369,11666 Z "/>
 <path fill="none" stroke="rgb(179,179,179)" stroke-linejoin="round" d="M 10281,9805 L 2525,9805 2525,1567 18036,1567 18036,9805 10281,9805 Z "/>
 <path fill="none" stroke="rgb(179,179,179)" stroke-linejoin="round" d="M 18036,9804 L 2525,9804 "/>
 <path fill="none" stroke="rgb(179,179,179)" stroke-linejoin="round" d="M 18036,8627 L 2525,8627 "/>
 <path fill="none" stroke="rgb(179,179,179)" stroke-linejoin="round" d="M 18036,7450 L 2525,7450 "/>
 <path fill="none" stroke="rgb(179,179,179)" stroke-linejoin="round" d="M 18036,6273 L 2525,6273 "/>
 <path fill="none" stroke="rgb(179,179,179)" stroke-linejoin="round" d="M 18036,5097 L 2525,5097 "/>
 <path fill="none" stroke="rgb(179,179,179)" stroke-linejoin="round" d="M 18036,3920 L 2525,3920 "/>
 <path fill="none" stroke="rgb(179,179,179)" stroke-linejoin="round" d="M 18036,2743 L 2525,2743 "/>
 <path fill="none" stroke="rgb(179,179,179)" stroke-linejoin="round" d="M 18036,1566 L 2525,1566 "/>
 <path fill="none" stroke="rgb(179,179,179)" stroke-linejoin="round" d="M 2525,9954 L 2525,9804 "/>
 <path fill="none" stroke="rgb(179,179,179)" stroke-linejoin="round" d="M 4741,9954 L 4741,9804 "/>
 <path fill="none" stroke="rgb(179,179,179)" stroke-linejoin="round" d="M 6957,9954 L 6957,9804 "/>
 <path fill="none" stroke="rgb(179,179,179)" stroke-linejoin="round" d="M 9173,9954 L 9173,9804 "/>
 <path fill="none" stroke="rgb(179,179,179)" stroke-linejoin="round" d="M 11388,9954 L 11388,9804 "/>
 <path fill="none" stroke="rgb(179,179,179)" stroke-linejoin="round" d="M 13603,9954 L 13603,9804 "/>
 <path fill="none" stroke="rgb(179,179,179)" stroke-linejoin="round" d="M 15820,9954 L 15820,9804 "/>
 <path fill="none" stroke="rgb(179,179,179)" stroke-linejoin="round" d="M 18036,9954 L 18036,9804 "/>
 <path fill="none" stroke="rgb(179,179,179)" stroke-linejoin="round" d="M 2525,9804 L 18036,9804 "/>
 <path fill="none" stroke="rgb(179,179,179)" stroke-linejoin="round" d="M 2375,9804 L 2525,9804 "/>
 <path fill="none" stroke="rgb(179,179,179)" stroke-linejoin="round" d="M 2375,8627 L 2525,8627 "/>
 <path fill="none" stroke="rgb(179,179,179)" stroke-linejoin="round" d="M 2375,7450 L 2525,7450 "/>
 <path fill="none" stroke="rgb(179,179,179)" stroke-linejoin="round" d="M 2375,6273 L 2525,6273 "/>
 <path fill="none" stroke="rgb(179,179,179)" stroke-linejoin="round" d="M 2375,5097 L 2525,5097 "/>
 <path fill="none" stroke="rgb(179,179,179)" stroke-linejoin="round" d="M 2375,3920 L 2525,3920 "/>
 <path fill="none" stroke="rgb(179,179,179)" stroke-linejoin="round" d="M 2375,2743 L 2525,2743 "/>
 <path fill="none" stroke="rgb(179,179,179)" stroke-linejoin="round" d="M 2375,1566 L 2525,1566 "/>
 <path fill="none" stroke="rgb(179,179,179)" stroke-linejoin="round" d="M 2525,9804 L 2525,1566 "/>
 <path fill="none" stroke="rgb(179,179,179)" stroke-linejoin="round" d="M 18186,9804 L 18036,9804 "/>
 <path fill="none" stroke="rgb(179,179,179)" stroke-linejoin="round" d="M 18186,8774 L 18036,8774 "/>
 <path fill="none" stroke="rgb(179,179,179)" stroke-linejoin="round" d="M 18186,7744 L 18036,7744 "/>
 <path fill="none" stroke="rgb(179,179,179)" stroke-linejoin="round" d="M 18186,6714 L 18036,6714 "/>
 <path fill="none" stroke="rgb(179,179,179)" stroke-linejoin="round" d="M 18186,5685 L 18036,5685 "/>
 <path fill="none" stroke="rgb(179,179,179)" stroke-linejoin="round" d="M 18186,4655 L 18036,4655 "/>
 <path fill="none" stroke="rgb(179,179,179)" stroke-linejoin="round" d="M 18186,3625 L 18036,3625 "/>
 <path fill="none" stroke="rgb(179,179,179)" stroke-linejoin="round" d="M 18186,2595 L 18036,2595 "/>
 <path fill="none" stroke="rgb(179,179,179)" stroke-linejoin="round" d="M 18186,1566 L 18036,1566 "/>
 <path fill="none" stroke="rgb(179,179,179)" stroke-linejoin="round" d="M 18036,9804 L 18036,1566 "/>
 <path fill="rgb(255,66,14)" stroke="none" d="M 4600,8708 L 4741,8849 4882,8708 4741,8567 4600,8708 Z "/>
 <path fill="none" stroke="rgb(255,66,14)" stroke-linejoin="round" d="M 4600,8708 L 4741,8849 4882,8708 4741,8567 4600,8708 Z "/>
 <path fill="rgb(255,66,14)" stroke="none" d="M 6816,8306 L 6957,8447 7098,8306 6957,8165 6816,8306 Z "/>
 <path fill="none" stroke="rgb(255,66,14)" stroke-linejoin="round" d="M 6816,8306 L 6957,8447 7098,8306 6957,8165 6816,8306 Z "/>
 <path fill="rgb(255,66,14)" stroke="none" d="M 9032,7460 L 9173,7601 9314,7460 9173,7319 9032,7460 Z "/>
 <path fill="none" stroke="rgb(255,66,14)" stroke-linejoin="round" d="M 9032,7460 L 9173,7601 9314,7460 9173,7319 9032,7460 Z "/>
 <path fill="rgb(255,66,14)" stroke="none" d="M 11247,6349 L 11388,6490 11529,6349 11388,6208 11247,6349 Z "/>
 <path fill="none" stroke="rgb(255,66,14)" stroke-linejoin="round" d="M 11247,6349 L 11388,6490 11529,6349 11388,6208 11247,6349 Z "/>
 <path fill="rgb(255,66,14)" stroke="none" d="M 13463,4326 L 13604,4467 13745,4326 13604,4185 13463,4326 Z "/>
 <path fill="none" stroke="rgb(255,66,14)" stroke-linejoin="round" d="M 13463,4326 L 13604,4467 13745,4326 13604,4185 13463,4326 Z "/>
 <path fill="rgb(255,66,14)" stroke="none" d="M 15679,1975 L 15820,2116 15961,1975 15820,1834 15679,1975 Z "/>
 <path fill="none" stroke="rgb(255,66,14)" stroke-linejoin="round" d="M 15679,1975 L 15820,2116 15961,1975 15820,1834 15679,1975 Z "/>
 <path fill="rgb(0,69,134)" stroke="none" d="M 4600,2749 L 4600,3031 4882,3031 4882,2749 4600,2749 Z "/>
 <path fill="none" stroke="rgb(0,69,134)" stroke-linejoin="round" d="M 4600,2749 L 4600,3031 4882,3031 4882,2749 4600,2749 Z "/>
 <path fill="rgb(0,69,134)" stroke="none" d="M 6816,4739 L 6816,5021 7098,5021 7098,4739 6816,4739 Z "/>
 <path fill="none" stroke="rgb(0,69,134)" stroke-linejoin="round" d="M 6816,4739 L 6816,5021 7098,5021 7098,4739 6816,4739 Z "/>
 <path fill="rgb(0,69,134)" stroke="none" d="M 9032,5532 L 9032,5814 9314,5814 9314,5532 9032,5532 Z "/>
 <path fill="none" stroke="rgb(0,69,134)" stroke-linejoin="round" d="M 9032,5532 L 9032,5814 9314,5814 9314,5532 9032,5532 Z "/>
 <path fill="rgb(0,69,134)" stroke="none" d="M 11247,6254 L 11247,6536 11529,6536 11529,6254 11247,6254 Z "/>
 <path fill="none" stroke="rgb(0,69,134)" stroke-linejoin="round" d="M 11247,6254 L 11247,6536 11529,6536 11529,6254 11247,6254 Z "/>
 <path fill="rgb(0,69,134)" stroke="none" d="M 13463,6426 L 13463,6708 13745,6708 13745,6426 13463,6426 Z "/>
 <path fill="none" stroke="rgb(0,69,134)" stroke-linejoin="round" d="M 13463,6426 L 13463,6708 13745,6708 13745,6426 13463,6426 Z "/>
 <path fill="rgb(0,69,134)" stroke="none" d="M 15679,7420 L 15679,7702 15961,7702 15961,7420 15679,7420 Z "/>
 <path fill="none" stroke="rgb(0,69,134)" stroke-linejoin="round" d="M 15679,7420 L 15679,7702 15961,7702 15961,7420 15679,7420 Z "/>
 <text class="SVGTextShape"><tspan class="TextParagraph"><tspan class="TextPosition" x="2429" y="10372"><tspan font-family="Arial, sans-serif" font-size="353px" font-weight="400" lengthAdjust="spacingAndGlyphs" textLength="191" fill="rgb(0,0,0)" stroke="none" style="white-space: pre">8</tspan></tspan></tspan></text>
 <text class="SVGTextShape"><tspan class="TextParagraph"><tspan class="TextPosition" x="4645" y="10372"><tspan font-family="Arial, sans-serif" font-size="353px" font-weight="400" lengthAdjust="spacingAndGlyphs" textLength="191" fill="rgb(0,0,0)" stroke="none" style="white-space: pre">9</tspan></tspan></tspan></text>
 <text class="SVGTextShape"><tspan class="TextParagraph"><tspan class="TextPosition" x="6765" y="10372"><tspan font-family="Arial, sans-serif" font-size="353px" font-weight="400" lengthAdjust="spacingAndGlyphs" textLength="382" fill="rgb(0,0,0)" stroke="none" style="white-space: pre">10</tspan></tspan></tspan></text>
 <text class="SVGTextShape"><tspan class="TextParagraph"><tspan class="TextPosition" x="8981" y="10372"><tspan font-family="Arial, sans-serif" font-size="353px" font-weight="400" lengthAdjust="spacingAndGlyphs" textLength="382" fill="rgb(0,0,0)" stroke="none" style="white-space: pre">11</tspan></tspan></tspan></text>
 <text class="SVGTextShape"><tspan class="TextParagraph"><tspan class="TextPosition" x="11196" y="10372"><tspan font-family="Arial, sans-serif" font-size="353px" font-weight="400" lengthAdjust="spacingAndGlyphs" textLength="382" fill="rgb(0,0,0)" stroke="none" style="white-space: pre">12</tspan></tspan></tspan></text>
 <text class="SVGTextShape"><tspan class="TextParagraph"><tspan class="TextPosition" x="13411" y="10372"><tspan font-family="Arial, sans-serif" font-size="353px" font-weight="400" lengthAdjust="spacingAndGlyphs" textLength="382" fill="rgb(0,0,0)" stroke="none" style="white-space: pre">13</tspan></tspan></tspan></text>
 <text class="SVGTextShape"><tspan class="TextParagraph"><tspan class="TextPosition" x="15628" y="10372"><tspan font-family="Arial, sans-serif" font-size="353px" font-weight="400" lengthAdjust="spacingAndGlyphs" textLength="382" fill="rgb(0,0,0)" stroke="none" style="white-space: pre">14</tspan></tspan></tspan></text>
 <text class="SVGTextShape"><tspan class="TextParagraph"><tspan class="TextPosition" x="17844" y="10372"><tspan font-family="Arial, sans-serif" font-size="353px" font-weight="400" lengthAdjust="spacingAndGlyphs" textLength="382" fill="rgb(0,0,0)" stroke="none" style="white-space: pre">15</tspan></tspan></tspan></text>
 <text class="SVGTextShape"><tspan class="TextParagraph"><tspan class="TextPosition" x="1606" y="9924"><tspan font-family="Arial, sans-serif" font-size="353px" font-weight="400" lengthAdjust="spacingAndGlyphs" textLength="669" fill="rgb(0,0,0)" stroke="none" style="white-space: pre">0,00</tspan></tspan></tspan></text>
 <text class="SVGTextShape"><tspan class="TextParagraph"><tspan class="TextPosition" x="1606" y="8747"><tspan font-family="Arial, sans-serif" font-size="353px" font-weight="400" lengthAdjust="spacingAndGlyphs" textLength="669" fill="rgb(0,0,0)" stroke="none" style="white-space: pre">5,00</tspan></tspan></tspan></text>
 <text class="SVGTextShape"><tspan class="TextParagraph"><tspan class="TextPosition" x="1414" y="7570"><tspan font-family="Arial, sans-serif" font-size="353px" font-weight="400" lengthAdjust="spacingAndGlyphs" textLength="860" fill="rgb(0,0,0)" stroke="none" style="white-space: pre">10,00</tspan></tspan></tspan></text>
 <text class="SVGTextShape"><tspan class="TextParagraph"><tspan class="TextPosition" x="1414" y="6393"><tspan font-family="Arial, sans-serif" font-size="353px" font-weight="400" lengthAdjust="spacingAndGlyphs" textLength="860" fill="rgb(0,0,0)" stroke="none" style="white-space: pre">15,00</tspan></tspan></tspan></text>
 <text class="SVGTextShape"><tspan class="TextParagraph"><tspan class="TextPosition" x="1414" y="5217"><tspan font-family="Arial, sans-serif" font-size="353px" font-weight="400" lengthAdjust="spacingAndGlyphs" textLength="860" fill="rgb(0,0,0)" stroke="none" style="white-space: pre">20,00</tspan></tspan></tspan></text>
 <text class="SVGTextShape"><tspan class="TextParagraph"><tspan class="TextPosition" x="1414" y="4040"><tspan font-family="Arial, sans-serif" font-size="353px" font-weight="400" lengthAdjust="spacingAndGlyphs" textLength="860" fill="rgb(0,0,0)" stroke="none" style="white-space: pre">25,00</tspan></tspan></tspan></text>
 <text class="SVGTextShape"><tspan class="TextParagraph"><tspan class="TextPosition" x="1414" y="2863"><tspan font-family="Arial, sans-serif" font-size="353px" font-weight="400" lengthAdjust="spacingAndGlyphs" textLength="860" fill="rgb(0,0,0)" stroke="none" style="white-space: pre">30,00</tspan></tspan></tspan></text>
 <text class="SVGTextShape"><tspan class="TextParagraph"><tspan class="TextPosition" x="1414" y="1686"><tspan font-family="Arial, sans-serif" font-size="353px" font-weight="400" lengthAdjust="spacingAndGlyphs" textLength="860" fill="rgb(0,0,0)" stroke="none" style="white-space: pre">35,00</tspan></tspan></tspan></text>
 <text class="SVGTextShape"><tspan class="TextParagraph"><tspan class="TextPosition" x="18286" y="9924"><tspan font-family="Arial, sans-serif" font-size="353px" font-weight="400" lengthAdjust="spacingAndGlyphs" textLength="1070" fill="rgb(0,0,0)" stroke="none" style="white-space: pre">0,00 %</tspan></tspan></tspan></text>
 <text class="SVGTextShape"><tspan class="TextParagraph"><tspan class="TextPosition" x="18286" y="8894"><tspan font-family="Arial, sans-serif" font-size="353px" font-weight="400" lengthAdjust="spacingAndGlyphs" textLength="1070" fill="rgb(0,0,0)" stroke="none" style="white-space: pre">1,00 %</tspan></tspan></tspan></text>
 <text class="SVGTextShape"><tspan class="TextParagraph"><tspan class="TextPosition" x="18286" y="7864"><tspan font-family="Arial, sans-serif" font-size="353px" font-weight="400" lengthAdjust="spacingAndGlyphs" textLength="1070" fill="rgb(0,0,0)" stroke="none" style="white-space: pre">2,00 %</tspan></tspan></tspan></text>
 <text class="SVGTextShape"><tspan class="TextParagraph"><tspan class="TextPosition" x="18286" y="6834"><tspan font-family="Arial, sans-serif" font-size="353px" font-weight="400" lengthAdjust="spacingAndGlyphs" textLength="1070" fill="rgb(0,0,0)" stroke="none" style="white-space: pre">3,00 %</tspan></tspan></tspan></text>
 <text class="SVGTextShape"><tspan class="TextParagraph"><tspan class="TextPosition" x="18286" y="5805"><tspan font-family="Arial, sans-serif" font-size="353px" font-weight="400" lengthAdjust="spacingAndGlyphs" textLength="1070" fill="rgb(0,0,0)" stroke="none" style="white-space: pre">4,00 %</tspan></tspan></tspan></text>
 <text class="SVGTextShape"><tspan class="TextParagraph"><tspan class="TextPosition" x="18286" y="4775"><tspan font-family="Arial, sans-serif" font-size="353px" font-weight="400" lengthAdjust="spacingAndGlyphs" textLength="1070" fill="rgb(0,0,0)" stroke="none" style="white-space: pre">5,00 %</tspan></tspan></tspan></text>
 <text class="SVGTextShape"><tspan class="TextParagraph"><tspan class="TextPosition" x="18286" y="3745"><tspan font-family="Arial, sans-serif" font-size="353px" font-weight="400" lengthAdjust="spacingAndGlyphs" textLength="1070" fill="rgb(0,0,0)" stroke="none" style="white-space: pre">6,00 %</tspan></tspan></tspan></text>
 <text class="SVGTextShape"><tspan class="TextParagraph"><tspan class="TextPosition" x="18286" y="2715"><tspan font-family="Arial, sans-serif" font-size="353px" font-weight="400" lengthAdjust="spacingAndGlyphs" textLength="1070" fill="rgb(0,0,0)" stroke="none" style="white-space: pre">7,00 %</tspan></tspan></tspan></text>
 <text class="SVGTextShape"><tspan class="TextParagraph"><tspan class="TextPosition" x="18286" y="1686"><tspan font-family="Arial, sans-serif" font-size="353px" font-weight="400" lengthAdjust="spacingAndGlyphs" textLength="1070" fill="rgb(0,0,0)" stroke="none" style="white-space: pre">8,00 %</tspan></tspan></tspan></text>
 <text class="SVGTextShape"><tspan class="TextParagraph"><tspan class="TextPosition" x="4787" y="891"><tspan font-family="Arial, sans-serif" font-size="459px" font-weight="400" lengthAdjust="spacingAndGlyphs" textLength="11162" fill="rgb(0,0,0)" stroke="none" style="white-space: pre">Effet de la taille des blocs : t = 20 fixé - image 1050x157</tspan></tspan></tspan></text>
 <text class="SVGTextShape"><tspan class="TextParagraph"><tspan class="TextPosition" x="8780" y="11071"><tspan font-family="Arial, sans-serif" font-size="318px" font-weight="400" lengthAdjust="spacingAndGlyphs" textLength="3211" fill="rgb(0,0,0)" stroke="none" style="white-space: pre">côté des blocs (carrés)</tspan></tspan></tspan></text>
 <text class="SVGTextShape" transform="rotate(-90 824 7726)"><tspan class="TextParagraph"><tspan class="TextPosition" x="824" y="7726"><tspan font-family="Arial, sans-serif" font-size="318px" font-weight="400" lengthAdjust="spacingAndGlyphs" textLength="3636" fill="rgb(0,0,0)" stroke="none" style="white-space: pre">durée du décodage (en s)</tspan></tspan></tspan></text>
 <text class="SVGTextShape" transform="rotate(-90 20160 7977)"><tspan class="TextParagraph"><tspan class="TextPosition" x="20160" y="7977"><tspan font-family="Arial, sans-serif" font-size="318px" font-weight="400" lengthAdjust="spacingAndGlyphs" textLength="4137" fill="rgb(0,0,0)" stroke="none" style="white-space: pre">taux d&apos;erreur après décodage</tspan></tspan></tspan></text>
</svg>