<?xml version="1.0" encoding="UTF-8"?>
<!DOCTYPE svg PUBLIC "-//W3C//DTD SVG 1.1//EN" "http://www.w3.org/Graphics/SVG/1.1/DTD/svg11.dtd">
<svg width="185mm" height="98mm" viewBox="0 0 18500 9800" version="1.1" xmlns="http://www.w3.org/2000/svg" xmlns:xlink="http://www.w3.org/1999/xlink" stroke-width="28.222" stroke-linejoin="round" xml:space="preserve">
 <path fill="rgb(255,255,255)" stroke="none" d="M 9226,9832 L -13,9832 -13,-13 18465,-13 18465,9832 9226,9832 Z "/>
 <path fill="none" stroke="rgb(179,179,179)" stroke-linejoin="round" d="M 10095,8008 L 2479,8008 2479,1493 17712,1493 17712,8008 10095,8008 Z "/>
 <path fill="none" stroke="rgb(179,179,179)" stroke-linejoin="round" d="M 17712,8007 L 2479,8007 "/>
 <path fill="none" stroke="rgb(179,179,179)" stroke-linejoin="round" d="M 17712,6921 L 2479,6921 "/>
 <path fill="none" stroke="rgb(179,179,179)" stroke-linejoin="round" d="M 17712,5835 L 2479,5835 "/>
 <path fill="none" stroke="rgb(179,179,179)" stroke-linejoin="round" d="M 17712,4750 L 2479,4750 "/>
 <path fill="none" stroke="rgb(179,179,179)" stroke-linejoin="round" d="M 17712,3664 L 2479,3664 "/>
 <path fill="none" stroke="rgb(179,179,179)" stroke-linejoin="round" d="M 17712,2578 L 2479,2578 "/>
 <path fill="none" stroke="rgb(179,179,179)" stroke-linejoin="round" d="M 17712,1492 L 2479,1492 "/>
 <path fill="none" stroke="rgb(179,179,179)" stroke-linejoin="round" d="M 2479,8157 L 2479,8007 "/>
 <path fill="none" stroke="rgb(179,179,179)" stroke-linejoin="round" d="M 4002,8157 L 4002,8007 "/>
 <path fill="none" stroke="rgb(179,179,179)" stroke-linejoin="round" d="M 5525,8157 L 5525,8007 "/>
 <path fill="none" stroke="rgb(179,179,179)" stroke-linejoin="round" d="M 7049,8157 L 7049,8007 "/>
 <path fill="none" stroke="rgb(179,179,179)" stroke-linejoin="round" d="M 8572,8157 L 8572,8007 "/>
 <path fill="none" stroke="rgb(179,179,179)" stroke-linejoin="round" d="M 10095,8157 L 10095,8007 "/>
 <path fill="none" stroke="rgb(179,179,179)" stroke-linejoin="round" d="M 11618,8157 L 11618,8007 "/>
 <path fill="none" stroke="rgb(179,179,179)" stroke-linejoin="round" d="M 13141,8157 L 13141,8007 "/>
 <path fill="none" stroke="rgb(179,179,179)" stroke-linejoin="round" d="M 14665,8157 L 14665,8007 "/>
 <path fill="none" stroke="rgb(179,179,179)" stroke-linejoin="round" d="M 16188,8157 L 16188,8007 "/>
 <path fill="none" stroke="rgb(179,179,179)" stroke-linejoin="round" d="M 17712,8157 L 17712,8007 "/>
 <path fill="none" stroke="rgb(179,179,179)" stroke-linejoin="round" d="M 2479,8007 L 17712,8007 "/>
 <path fill="none" stroke="rgb(179,179,179)" stroke-linejoin="round" d="M 2329,8007 L 2479,8007 "/>
 <path fill="none" stroke="rgb(179,179,179)" stroke-linejoin="round" d="M 2329,6921 L 2479,6921 "/>
 <path fill="none" stroke="rgb(179,179,179)" stroke-linejoin="round" d="M 2329,5835 L 2479,5835 "/>
 <path fill="none" stroke="rgb(179,179,179)" stroke-linejoin="round" d="M 2329,4750 L 2479,4750 "/>
 <path fill="none" stroke="rgb(179,179,179)" stroke-linejoin="round" d="M 2329,3664 L 2479,3664 "/>
 <path fill="none" stroke="rgb(179,179,179)" stroke-linejoin="round" d="M 2329,2578 L 2479,2578 "/>
 <path fill="none" stroke="rgb(179,179,179)" stroke-linejoin="round" d="M 2329,1492 L 2479,1492 "/>
 <path fill="none" stroke="rgb(179,179,179)" stroke-linejoin="round" d="M 2479,8007 L 2479,1492 "/>
 <path fill="rgb(0,69,134)" stroke="none" d="M 4910,6578 L 4784,6453 4769,6468 4894,6594 4769,6719 4784,6735 4910,6609 5035,6735 5051,6719 4925,6594 5051,6468 5035,6453 4910,6578 Z "/>
 <path fill="none" stroke="rgb(0,69,134)" stroke-linejoin="round" d="M 4910,6578 L 4784,6453 4769,6468 4894,6594 4769,6719 4784,6735 4910,6609 5035,6735 5051,6719 4925,6594 5051,6468 5035,6453 4910,6578 Z "/>
 <path fill="rgb(0,69,134)" stroke="none" d="M 9804,4823 L 9679,4697 9663,4713 9789,4838 9663,4963 9679,4978 9804,4854 9930,4978 9945,4963 9820,4838 9945,4713 9930,4697 9804,4823 Z "/>
 <path fill="none" stroke="rgb(0,69,134)" stroke-linejoin="round" d="M 9804,4823 L 9679,4697 9663,4713 9789,4838 9663,4963 9679,4978 9804,4854 9930,4978 9945,4963 9820,4838 9945,4713 9930,4697 9804,4823 Z "/>
 <path fill="rgb(0,69,134)" stroke="none" d="M 4990,6795 L 4864,6670 4849,6686 4974,6811 4849,6936 4864,6952 4990,6827 5115,6952 5131,6936 5005,6811 5131,6686 5115,6670 4990,6795 Z "/>
 <path fill="none" stroke="rgb(0,69,134)" stroke-linejoin="round" d="M 4990,6795 L 4864,6670 4849,6686 4974,6811 4849,6936 4864,6952 4990,6827 5115,6952 5131,6936 5005,6811 5131,6686 5115,6670 4990,6795 Z "/>
 <path fill="rgb(0,69,134)" stroke="none" d="M 9854,5032 L 9728,4907 9713,4922 9838,5047 9713,5173 9728,5188 9854,5063 9979,5188 9995,5173 9869,5047 9995,4922 9979,4907 9854,5032 Z "/>
 <path fill="none" stroke="rgb(0,69,134)" stroke-linejoin="round" d="M 9854,5032 L 9728,4907 9713,4922 9838,5047 9713,5173 9728,5188 9854,5063 9979,5188 9995,5173 9869,5047 9995,4922 9979,4907 9854,5032 Z "/>
 <path fill="rgb(0,69,134)" stroke="none" d="M 4796,6844 L 4670,6719 4655,6734 4780,6860 4655,6985 4670,7001 4796,6875 4921,7001 4937,6985 4811,6860 4937,6734 4921,6719 4796,6844 Z "/>
 <path fill="none" stroke="rgb(0,69,134)" stroke-linejoin="round" d="M 4796,6844 L 4670,6719 4655,6734 4780,6860 4655,6985 4670,7001 4796,6875 4921,7001 4937,6985 4811,6860 4937,6734 4921,6719 4796,6844 Z "/>
 <path fill="rgb(0,69,134)" stroke="none" d="M 11746,4764 L 11620,4639 11605,4654 11730,4780 11605,4905 11620,4920 11746,4795 11871,4920 11887,4905 11761,4780 11887,4654 11871,4639 11746,4764 Z "/>
 <path fill="none" stroke="rgb(0,69,134)" stroke-linejoin="round" d="M 11746,4764 L 11620,4639 11605,4654 11730,4780 11605,4905 11620,4920 11746,4795 11871,4920 11887,4905 11761,4780 11887,4654 11871,4639 11746,4764 Z "/>
 <path fill="rgb(0,69,134)" stroke="none" d="M 5563,6605 L 5438,6480 5422,6495 5548,6621 5422,6746 5438,6762 5563,6636 5689,6762 5704,6746 5579,6621 5704,6495 5689,6480 5563,6605 Z "/>
 <path fill="none" stroke="rgb(0,69,134)" stroke-linejoin="round" d="M 5563,6605 L 5438,6480 5422,6495 5548,6621 5422,6746 5438,6762 5563,6636 5689,6762 5704,6746 5579,6621 5704,6495 5689,6480 5563,6605 Z "/>
 <path fill="rgb(0,69,134)" stroke="none" d="M 14817,3292 L 14692,3167 14676,3182 14801,3308 14676,3433 14692,3449 14817,3323 14942,3449 14958,3433 14833,3308 14958,3182 14942,3167 14817,3292 Z "/>
 <path fill="none" stroke="rgb(0,69,134)" stroke-linejoin="round" d="M 14817,3292 L 14692,3167 14676,3182 14801,3308 14676,3433 14692,3449 14817,3323 14942,3449 14958,3433 14833,3308 14958,3182 14942,3167 14817,3292 Z "/>
 <path fill="rgb(0,69,134)" stroke="none" d="M 4592,7139 L 4467,7014 4451,7029 4577,7155 4451,7280 4467,7296 4592,7170 4718,7296 4733,7280 4608,7155 4733,7029 4718,7014 4592,7139 Z "/>
 <path fill="none" stroke="rgb(0,69,134)" stroke-linejoin="round" d="M 4592,7139 L 4467,7014 4451,7029 4577,7155 4451,7280 4467,7296 4592,7170 4718,7296 4733,7280 4608,7155 4733,7029 4718,7014 4592,7139 Z "/>
 <path fill="rgb(0,69,134)" stroke="none" d="M 10955,5066 L 10830,4941 10814,4957 10940,5082 10814,5207 10830,5223 10955,5098 11081,5223 11096,5207 10971,5082 11096,4957 11081,4941 10955,5066 Z "/>
 <path fill="none" stroke="rgb(0,69,134)" stroke-linejoin="round" d="M 10955,5066 L 10830,4941 10814,4957 10940,5082 10814,5207 10830,5223 10955,5098 11081,5223 11096,5207 10971,5082 11096,4957 11081,4941 10955,5066 Z "/>
 <path fill="rgb(0,69,134)" stroke="none" d="M 5563,6818 L 5438,6693 5422,6709 5548,6834 5422,6959 5438,6975 5563,6850 5689,6975 5704,6959 5579,6834 5704,6709 5689,6693 5563,6818 Z "/>
 <path fill="none" stroke="rgb(0,69,134)" stroke-linejoin="round" d="M 5563,6818 L 5438,6693 5422,6709 5548,6834 5422,6959 5438,6975 5563,6850 5689,6975 5704,6959 5579,6834 5704,6709 5689,6693 5563,6818 Z "/>
 <path fill="rgb(0,69,134)" stroke="none" d="M 14817,3674 L 14692,3548 14676,3564 14801,3689 14676,3815 14692,3830 14817,3705 14942,3830 14958,3815 14833,3689 14958,3564 14942,3548 14817,3674 Z "/>
 <path fill="none" stroke="rgb(0,69,134)" stroke-linejoin="round" d="M 14817,3674 L 14692,3548 14676,3564 14801,3689 14676,3815 14692,3830 14817,3705 14942,3830 14958,3815 14833,3689 14958,3564 14942,3548 14817,3674 Z "/>
 <path fill="rgb(0,69,134)" stroke="none" d="M 2500,7885 L 2375,7759 2359,7775 2485,7900 2359,8026 2375,8041 2500,7916 2626,8041 2641,8026 2516,7900 2641,7775 2626,7759 2500,7885 Z "/>
 <path fill="none" stroke="rgb(0,69,134)" stroke-linejoin="round" d="M 2500,7885 L 2375,7759 2359,7775 2485,7900 2359,8026 2375,8041 2500,7916 2626,8041 2641,8026 2516,7900 2641,7775 2626,7759 2500,7885 Z "/>
 <path fill="rgb(0,69,134)" stroke="none" d="M 2563,7946 L 2438,7820 2422,7836 2547,7961 2422,8087 2438,8102 2563,7977 2688,8102 2704,8087 2579,7961 2704,7836 2688,7820 2563,7946 Z "/>
 <path fill="none" stroke="rgb(0,69,134)" stroke-linejoin="round" d="M 2563,7946 L 2438,7820 2422,7836 2547,7961 2422,8087 2438,8102 2563,7977 2688,8102 2704,8087 2579,7961 2704,7836 2688,7820 2563,7946 Z "/>
 <path fill="rgb(0,69,134)" stroke="none" d="M 2670,7910 L 2545,7785 2529,7800 2655,7926 2529,8051 2545,8067 2670,7941 2796,8067 2811,8051 2686,7926 2811,7800 2796,7785 2670,7910 Z "/>
 <path fill="none" stroke="rgb(0,69,134)" stroke-linejoin="round" d="M 2670,7910 L 2545,7785 2529,7800 2655,7926 2529,8051 2545,8067 2670,7941 2796,8067 2811,8051 2686,7926 2811,7800 2796,7785 2670,7910 Z "/>
 <path fill="rgb(0,69,134)" stroke="none" d="M 2817,7878 L 2691,7752 2676,7768 2801,7893 2676,8019 2691,8034 2817,7909 2942,8034 2958,8019 2832,7893 2958,7768 2942,7752 2817,7878 Z "/>
 <path fill="none" stroke="rgb(0,69,134)" stroke-linejoin="round" d="M 2817,7878 L 2691,7752 2676,7768 2801,7893 2676,8019 2691,8034 2817,7909 2942,8034 2958,8019 2832,7893 2958,7768 2942,7752 2817,7878 Z "/>
 <path fill="rgb(0,69,134)" stroke="none" d="M 4196,7665 L 4070,7540 4055,7555 4180,7681 4055,7806 4070,7822 4196,7696 4321,7822 4337,7806 4211,7681 4337,7555 4321,7540 4196,7665 Z "/>
 <path fill="none" stroke="rgb(0,69,134)" stroke-linejoin="round" d="M 4196,7665 L 4070,7540 4055,7555 4180,7681 4055,7806 4070,7822 4196,7696 4321,7822 4337,7806 4211,7681 4337,7555 4321,7540 4196,7665 Z "/>
 <path fill="rgb(0,69,134)" stroke="none" d="M 4592,7604 L 4467,7478 4451,7494 4577,7619 4451,7745 4467,7760 4592,7635 4718,7760 4733,7745 4608,7619 4733,7494 4718,7478 4592,7604 Z "/>
 <path fill="none" stroke="rgb(0,69,134)" stroke-linejoin="round" d="M 4592,7604 L 4467,7478 4451,7494 4577,7619 4451,7745 4467,7760 4592,7635 4718,7760 4733,7745 4608,7619 4733,7494 4718,7478 4592,7604 Z "/>
 <path fill="rgb(0,69,134)" stroke="none" d="M 5042,7444 L 4917,7319 4901,7334 5027,7460 4901,7585 4917,7601 5042,7475 5168,7601 5183,7585 5058,7460 5183,7334 5168,7319 5042,7444 Z "/>
 <path fill="none" stroke="rgb(0,69,134)" stroke-linejoin="round" d="M 5042,7444 L 4917,7319 4901,7334 5027,7460 4901,7585 4917,7601 5042,7475 5168,7601 5183,7585 5058,7460 5183,7334 5168,7319 5042,7444 Z "/>
 <path fill="rgb(0,69,134)" stroke="none" d="M 5536,7267 L 5411,7142 5395,7158 5520,7283 5395,7408 5411,7424 5536,7299 5661,7424 5677,7408 5552,7283 5677,7158 5661,7142 5536,7267 Z "/>
 <path fill="none" stroke="rgb(0,69,134)" stroke-linejoin="round" d="M 5536,7267 L 5411,7142 5395,7158 5520,7283 5395,7408 5411,7424 5536,7299 5661,7424 5677,7408 5552,7283 5677,7158 5661,7142 5536,7267 Z "/>
 <path fill="rgb(0,69,134)" stroke="none" d="M 6058,7107 L 5933,6981 5917,6997 6043,7122 5917,7248 5933,7263 6058,7138 6184,7263 6199,7248 6074,7122 6199,6997 6184,6981 6058,7107 Z "/>
 <path fill="none" stroke="rgb(0,69,134)" stroke-linejoin="round" d="M 6058,7107 L 5933,6981 5917,6997 6043,7122 5917,7248 5933,7263 6058,7138 6184,7263 6199,7248 6074,7122 6199,6997 6184,6981 6058,7107 Z "/>
 <path fill="rgb(0,69,134)" stroke="none" d="M 6637,6968 L 6512,6842 6496,6858 6622,6983 6496,7109 6512,7124 6637,6999 6763,7124 6778,7109 6653,6983 6778,6858 6763,6842 6637,6968 Z "/>
 <path fill="none" stroke="rgb(0,69,134)" stroke-linejoin="round" d="M 6637,6968 L 6512,6842 6496,6858 6622,6983 6496,7109 6512,7124 6637,6999 6763,7124 6778,7109 6653,6983 6778,6858 6763,6842 6637,6968 Z "/>
 <path fill="rgb(0,69,134)" stroke="none" d="M 7243,6840 L 7118,6715 7102,6730 7227,6856 7102,6981 7118,6997 7243,6871 7368,6997 7384,6981 7259,6856 7384,6730 7368,6715 7243,6840 Z "/>
 <path fill="none" stroke="rgb(0,69,134)" stroke-linejoin="round" d="M 7243,6840 L 7118,6715 7102,6730 7227,6856 7102,6981 7118,6997 7243,6871 7368,6997 7384,6981 7259,6856 7384,6730 7368,6715 7243,6840 Z "/>
 <path fill="rgb(0,69,134)" stroke="none" d="M 7908,6613 L 7782,6488 7767,6503 7892,6629 7767,6754 7782,6770 7908,6644 8033,6770 8049,6754 7923,6629 8049,6503 8033,6488 7908,6613 Z "/>
 <path fill="none" stroke="rgb(0,69,134)" stroke-linejoin="round" d="M 7908,6613 L 7782,6488 7767,6503 7892,6629 7767,6754 7782,6770 7908,6644 8033,6770 8049,6754 7923,6629 8049,6503 8033,6488 7908,6613 Z "/>
 <path fill="rgb(0,69,134)" stroke="none" d="M 9347,6484 L 9222,6359 9207,6374 9331,6500 9207,6625 9222,6641 9347,6515 9472,6641 9488,6625 9362,6500 9488,6374 9472,6359 9347,6484 Z "/>
 <path fill="none" stroke="rgb(0,69,134)" stroke-linejoin="round" d="M 9347,6484 L 9222,6359 9207,6374 9331,6500 9207,6625 9222,6641 9347,6515 9472,6641 9488,6625 9362,6500 9488,6374 9472,6359 9347,6484 Z "/>
 <path fill="rgb(0,69,134)" stroke="none" d="M 10955,5563 L 10830,5437 10814,5453 10940,5578 10814,5704 10830,5719 10955,5594 11081,5719 11096,5704 10971,5578 11096,5453 11081,5437 10955,5563 Z "/>
 <path fill="none" stroke="rgb(0,69,134)" stroke-linejoin="round" d="M 10955,5563 L 10830,5437 10814,5453 10940,5578 10814,5704 10830,5719 10955,5594 11081,5719 11096,5704 10971,5578 11096,5453 11081,5437 10955,5563 Z "/>
 <path fill="rgb(0,69,134)" stroke="none" d="M 12733,4713 L 12608,4588 12592,4603 12717,4729 12592,4854 12608,4870 12733,4744 12858,4870 12874,4854 12749,4729 12874,4603 12858,4588 12733,4713 Z "/>
 <path fill="none" stroke="rgb(0,69,134)" stroke-linejoin="round" d="M 12733,4713 L 12608,4588 12592,4603 12717,4729 12592,4854 12608,4870 12733,4744 12858,4870 12874,4854 12749,4729 12874,4603 12858,4588 12733,4713 Z "/>
 <path fill="rgb(0,69,134)" stroke="none" d="M 14680,3468 L 14555,3343 14539,3358 14664,3484 14539,3609 14555,3625 14680,3499 14805,3625 14821,3609 14696,3484 14821,3358 14805,3343 14680,3468 Z "/>
 <path fill="none" stroke="rgb(0,69,134)" stroke-linejoin="round" d="M 14680,3468 L 14555,3343 14539,3358 14664,3484 14539,3609 14555,3625 14680,3499 14805,3625 14821,3609 14696,3484 14821,3358 14805,3343 14680,3468 Z "/>
 <path fill="rgb(0,69,134)" stroke="none" d="M 16796,2158 L 16671,2032 16655,2048 16780,2173 16655,2299 16671,2314 16796,2189 16921,2314 16937,2299 16812,2173 16937,2048 16921,2032 16796,2158 Z "/>
 <path fill="none" stroke="rgb(0,69,134)" stroke-linejoin="round" d="M 16796,2158 L 16671,2032 16655,2048 16780,2173 16655,2299 16671,2314 16796,2189 16921,2314 16937,2299 16812,2173 16937,2048 16921,2032 16796,2158 Z "/>
 <path fill="rgb(0,69,134)" stroke="none" d="M 2500,7885 L 2375,7759 2359,7775 2485,7900 2359,8026 2375,8041 2500,7916 2626,8041 2641,8026 2516,7900 2641,7775 2626,7759 2500,7885 Z "/>
 <path fill="none" stroke="rgb(0,69,134)" stroke-linejoin="round" d="M 2500,7885 L 2375,7759 2359,7775 2485,7900 2359,8026 2375,8041 2500,7916 2626,8041 2641,8026 2516,7900 2641,7775 2626,7759 2500,7885 Z "/>
 <path fill="rgb(0,69,134)" stroke="none" d="M 2563,7946 L 2438,7820 2422,7836 2547,7961 2422,8087 2438,8102 2563,7977 2688,8102 2704,8087 2579,7961 2704,7836 2688,7820 2563,7946 Z "/>
 <path fill="none" stroke="rgb(0,69,134)" stroke-linejoin="round" d="M 2563,7946 L 2438,7820 2422,7836 2547,7961 2422,8087 2438,8102 2563,7977 2688,8102 2704,8087 2579,7961 2704,7836 2688,7820 2563,7946 Z "/>
 <path fill="rgb(0,69,134)" stroke="none" d="M 2670,7910 L 2545,7785 2529,7800 2655,7926 2529,8051 2545,8067 2670,7941 2796,8067 2811,8051 2686,7926 2811,7800 2796,7785 2670,7910 Z "/>
 <path fill="none" stroke="rgb(0,69,134)" stroke-linejoin="round" d="M 2670,7910 L 2545,7785 2529,7800 2655,7926 2529,8051 2545,8067 2670,7941 2796,8067 2811,8051 2686,7926 2811,7800 2796,7785 2670,7910 Z "/>
 <path fill="rgb(0,69,134)" stroke="none" d="M 2817,7878 L 2691,7752 2676,7768 2801,7893 2676,8019 2691,8034 2817,7909 2942,8034 2958,8019 2832,7893 2958,7768 2942,7752 2817,7878 Z "/>
 <path fill="none" stroke="rgb(0,69,134)" stroke-linejoin="round" d="M 2817,7878 L 2691,7752 2676,7768 2801,7893 2676,8019 2691,8034 2817,7909 2942,8034 2958,8019 2832,7893 2958,7768 2942,7752 2817,7878 Z "/>
 <path fill="rgb(0,69,134)" stroke="none" d="M 4196,7665 L 4070,7540 4055,7555 4180,7681 4055,7806 4070,7822 4196,7696 4321,7822 4337,7806 4211,7681 4337,7555 4321,7540 4196,7665 Z "/>
 <path fill="none" stroke="rgb(0,69,134)" stroke-linejoin="round" d="M 4196,7665 L 4070,7540 4055,7555 4180,7681 4055,7806 4070,7822 4196,7696 4321,7822 4337,7806 4211,7681 4337,7555 4321,7540 4196,7665 Z "/>
 <path fill="rgb(0,69,134)" stroke="none" d="M 4592,7604 L 4467,7478 4451,7494 4577,7619 4451,7745 4467,7760 4592,7635 4718,7760 4733,7745 4608,7619 4733,7494 4718,7478 4592,7604 Z "/>
 <path fill="none" stroke="rgb(0,69,134)" stroke-linejoin="round" d="M 4592,7604 L 4467,7478 4451,7494 4577,7619 4451,7745 4467,7760 4592,7635 4718,7760 4733,7745 4608,7619 4733,7494 4718,7478 4592,7604 Z "/>
 <path fill="rgb(0,69,134)" stroke="none" d="M 5042,7444 L 4917,7319 4901,7334 5027,7460 4901,7585 4917,7601 5042,7475 5168,7601 5183,7585 5058,7460 5183,7334 5168,7319 5042,7444 Z "/>
 <path fill="none" stroke="rgb(0,69,134)" stroke-linejoin="round" d="M 5042,7444 L 4917,7319 4901,7334 5027,7460 4901,7585 4917,7601 5042,7475 5168,7601 5183,7585 5058,7460 5183,7334 5168,7319 5042,7444 Z "/>
 <path fill="rgb(0,69,134)" stroke="none" d="M 5536,7267 L 5411,7142 5395,7158 5520,7283 5395,7408 5411,7424 5536,7299 5661,7424 5677,7408 5552,7283 5677,7158 5661,7142 5536,7267 Z "/>
 <path fill="none" stroke="rgb(0,69,134)" stroke-linejoin="round" d="M 5536,7267 L 5411,7142 5395,7158 5520,7283 5395,7408 5411,7424 5536,7299 5661,7424 5677,7408 5552,7283 5677,7158 5661,7142 5536,7267 Z "/>
 <path fill="rgb(0,69,134)" stroke="none" d="M 6058,7107 L 5933,6981 5917,6997 6043,7122 5917,7248 5933,7263 6058,7138 6184,7263 6199,7248 6074,7122 6199,6997 6184,6981 6058,7107 Z "/>
 <path fill="none" stroke="rgb(0,69,134)" stroke-linejoin="round" d="M 6058,7107 L 5933,6981 5917,6997 6043,7122 5917,7248 5933,7263 6058,7138 6184,7263 6199,7248 6074,7122 6199,6997 6184,6981 6058,7107 Z "/>
 <path fill="rgb(0,69,134)" stroke="none" d="M 6637,6968 L 6512,6842 6496,6858 6622,6983 6496,7109 6512,7124 6637,6999 6763,7124 6778,7109 6653,6983 6778,6858 6763,6842 6637,6968 Z "/>
 <path fill="none" stroke="rgb(0,69,134)" stroke-linejoin="round" d="M 6637,6968 L 6512,6842 6496,6858 6622,6983 6496,7109 6512,7124 6637,6999 6763,7124 6778,7109 6653,6983 6778,6858 6763,6842 6637,6968 Z "/>
 <path fill="rgb(0,69,134)" stroke="none" d="M 7243,6840 L 7118,6715 7102,6730 7227,6856 7102,6981 7118,6997 7243,6871 7368,6997 7384,6981 7259,6856 7384,6730 7368,6715 7243,6840 Z "/>
 <path fill="none" stroke="rgb(0,69,134)" stroke-linejoin="round" d="M 7243,6840 L 7118,6715 7102,6730 7227,6856 7102,6981 7118,6997 7243,6871 7368,6997 7384,6981 7259,6856 7384,6730 7368,6715 7243,6840 Z "/>
 <path fill="rgb(0,69,134)" stroke="none" d="M 7908,6613 L 7782,6488 7767,6503 7892,6629 7767,6754 7782,6770 7908,6644 8033,6770 8049,6754 7923,6629 8049,6503 8033,6488 7908,6613 Z "/>
 <path fill="none" stroke="rgb(0,69,134)" stroke-linejoin="round" d="M 7908,6613 L 7782,6488 7767,6503 7892,6629 7767,6754 7782,6770 7908,6644 8033,6770 8049,6754 7923,6629 8049,6503 8033,6488 7908,6613 Z "/>
 <path fill="none" stroke="rgb(0,69,134)" stroke-linejoin="round" d="M 2500,7906 L 2656,7873 2811,7839 2966,7805 3122,7770 3277,7734 3433,7698 3588,7661 3743,7623 3899,7585 4054,7547 4210,7507 4365,7467 4520,7427 4676,7386 4831,7344 4987,7302 5142,7259 5297,7216 5453,7172 5608,7127 5764,7082 5919,7036 6074,6989 6230,6942 6385,6895 6541,6847 6696,6798 6851,6748 7007,6698 7162,6648 7318,6596 7473,6545 7628,6492 7784,6439 7939,6385 8095,6331 8250,6276 8405,6221 8561,6165 8716,6108 8872,6051 9027,5993 9182,5935 9337,5876 9492,5816 9648,5756 9803,5695 9958,5634 10114,5572 10269,5509 10425,5446 10580,5382 10735,5318 10891,5253 11046,5187 11202,5121 11357,5054 11512,4987 11668,4919 11823,4851 11979,4782 12134,4712 12289,4642 12445,4571 12600,4499 12756,4427 12911,4354 13066,4281 13222,4207 13377,4132 13533,4057 13688,3981 13843,3905 13999,3828 14154,3750 14310,3672 14465,3594 14620,3514 14776,3434 14931,3354 15087,3272 15242,3191 15397,3108 15553,3025 15708,2942 15864,2858 16019,2773 16174,2688 16330,2602 16485,2515 16641,2428 16796,2340 "/>
 <text class="SVGTextShape"><tspan class="TextParagraph"><tspan class="TextPosition" x="2383" y="8575"><tspan font-family="Arial, sans-serif" font-size="353px" font-weight="400" lengthAdjust="spacingAndGlyphs" textLength="191" fill="rgb(0,0,0)" stroke="none" style="white-space: pre">0</tspan></tspan></tspan></text>
 <text class="SVGTextShape"><tspan class="TextParagraph"><tspan class="TextPosition" x="3715" y="8575"><tspan font-family="Arial, sans-serif" font-size="353px" font-weight="400" lengthAdjust="spacingAndGlyphs" textLength="573" fill="rgb(0,0,0)" stroke="none" style="white-space: pre">100</tspan></tspan></tspan></text>
 <text class="SVGTextShape"><tspan class="TextParagraph"><tspan class="TextPosition" x="5238" y="8575"><tspan font-family="Arial, sans-serif" font-size="353px" font-weight="400" lengthAdjust="spacingAndGlyphs" textLength="573" fill="rgb(0,0,0)" stroke="none" style="white-space: pre">200</tspan></tspan></tspan></text>
 <text class="SVGTextShape"><tspan class="TextParagraph"><tspan class="TextPosition" x="6762" y="8575"><tspan font-family="Arial, sans-serif" font-size="353px" font-weight="400" lengthAdjust="spacingAndGlyphs" textLength="573" fill="rgb(0,0,0)" stroke="none" style="white-space: pre">300</tspan></tspan></tspan></text>
 <text class="SVGTextShape"><tspan class="TextParagraph"><tspan class="TextPosition" x="8285" y="8575"><tspan font-family="Arial, sans-serif" font-size="353px" font-weight="400" lengthAdjust="spacingAndGlyphs" textLength="573" fill="rgb(0,0,0)" stroke="none" style="white-space: pre">400</tspan></tspan></tspan></text>
 <text class="SVGTextShape"><tspan class="TextParagraph"><tspan class="TextPosition" x="9808" y="8575"><tspan font-family="Arial, sans-serif" font-size="353px" font-weight="400" lengthAdjust="spacingAndGlyphs" textLength="573" fill="rgb(0,0,0)" stroke="none" style="white-space: pre">500</tspan></tspan></tspan></text>
 <text class="SVGTextShape"><tspan class="TextParagraph"><tspan class="TextPosition" x="11331" y="8575"><tspan font-family="Arial, sans-serif" font-size="353px" font-weight="400" lengthAdjust="spacingAndGlyphs" textLength="573" fill="rgb(0,0,0)" stroke="none" style="white-space: pre">600</tspan></tspan></tspan></text>
 <text class="SVGTextShape"><tspan class="TextParagraph"><tspan class="TextPosition" x="12854" y="8575"><tspan font-family="Arial, sans-serif" font-size="353px" font-weight="400" lengthAdjust="spacingAndGlyphs" textLength="573" fill="rgb(0,0,0)" stroke="none" style="white-space: pre">700</tspan></tspan></tspan></text>
 <text class="SVGTextShape"><tspan class="TextParagraph"><tspan class="TextPosition" x="14378" y="8575"><tspan font-family="Arial, sans-serif" font-size="353px" font-weight="400" lengthAdjust="spacingAndGlyphs" textLength="573" fill="rgb(0,0,0)" stroke="none" style="white-space: pre">800</tspan></tspan></tspan></text>
 <text class="SVGTextShape"><tspan class="TextParagraph"><tspan class="TextPosition" x="15901" y="8575"><tspan font-family="Arial, sans-serif" font-size="353px" font-weight="400" lengthAdjust="spacingAndGlyphs" textLength="573" fill="rgb(0,0,0)" stroke="none" style="white-space: pre">900</tspan></tspan></tspan></text>
 <text class="SVGTextShape"><tspan class="TextParagraph"><tspan class="TextPosition" x="17329" y="8575"><tspan font-family="Arial, sans-serif" font-size="353px" font-weight="400" lengthAdjust="spacingAndGlyphs" textLength="765" fill="rgb(0,0,0)" stroke="none" style="white-space: pre">1000</tspan></tspan></tspan></text>
 <text class="SVGTextShape"><tspan class="TextParagraph"><tspan class="TextPosition" x="1560" y="8127"><tspan font-family="Arial, sans-serif" font-size="353px" font-weight="400" lengthAdjust="spacingAndGlyphs" textLength="669" fill="rgb(0,0,0)" stroke="none" style="white-space: pre">0,00</tspan></tspan></tspan></text>
 <text class="SVGTextShape"><tspan class="TextParagraph"><tspan class="TextPosition" x="1368" y="7041"><tspan font-family="Arial, sans-serif" font-size="353px" font-weight="400" lengthAdjust="spacingAndGlyphs" textLength="860" fill="rgb(0,0,0)" stroke="none" style="white-space: pre">10,00</tspan></tspan></tspan></text>
 <text class="SVGTextShape"><tspan class="TextParagraph"><tspan class="TextPosition" x="1368" y="5955"><tspan font-family="Arial, sans-serif" font-size="353px" font-weight="400" lengthAdjust="spacingAndGlyphs" textLength="860" fill="rgb(0,0,0)" stroke="none" style="white-space: pre">20,00</tspan></tspan></tspan></text>
 <text class="SVGTextShape"><tspan class="TextParagraph"><tspan class="TextPosition" x="1368" y="4870"><tspan font-family="Arial, sans-serif" font-size="353px" font-weight="400" lengthAdjust="spacingAndGlyphs" textLength="860" fill="rgb(0,0,0)" stroke="none" style="white-space: pre">30,00</tspan></tspan></tspan></text>
 <text class="SVGTextShape"><tspan class="TextParagraph"><tspan class="TextPosition" x="1368" y="3784"><tspan font-family="Arial, sans-serif" font-size="353px" font-weight="400" lengthAdjust="spacingAndGlyphs" textLength="860" fill="rgb(0,0,0)" stroke="none" style="white-space: pre">40,00</tspan></tspan></tspan></text>
 <text class="SVGTextShape"><tspan class="TextParagraph"><tspan class="TextPosition" x="1368" y="2698"><tspan font-family="Arial, sans-serif" font-size="353px" font-weight="400" lengthAdjust="spacingAndGlyphs" textLength="860" fill="rgb(0,0,0)" stroke="none" style="white-space: pre">50,00</tspan></tspan></tspan></text>
 <text class="SVGTextShape"><tspan class="TextParagraph"><tspan class="TextPosition" x="1368" y="1612"><tspan font-family="Arial, sans-serif" font-size="353px" font-weight="400" lengthAdjust="spacingAndGlyphs" textLength="860" fill="rgb(0,0,0)" stroke="none" style="white-space: pre">60,00</tspan></tspan></tspan></text>
 <text class="SVGTextShape"><tspan class="TextParagraph"><tspan class="TextPosition" x="2730" y="1967"><tspan font-family="Calibri, sans-serif" font-size="353px" font-weight="400" lengthAdjust="spacingAndGlyphs" textLength="5840" fill="rgb(0,0,0)" stroke="none" style="white-space: pre">f(x) = 2,65E-5 x² + 2,97E-2 x + 8,80E-1</tspan></tspan></tspan><tspan class="TextParagraph"><tspan class="TextPosition" x="2730" y="2443"><tspan font-family="Calibri, sans-serif" font-size="353px" font-weight="400" lengthAdjust="spacingAndGlyphs" textLength="1891" fill="rgb(0,0,0)" stroke="none" style="white-space: pre">R² = 9,55E-1</tspan></tspan></tspan></text>
 <text class="SVGTextShape"><tspan class="TextParagraph"><tspan class="TextPosition" x="3482" y="854"><tspan font-family="Arial, sans-serif" font-size="459px" font-weight="400" lengthAdjust="spacingAndGlyphs" textLength="11487" fill="rgb(0,0,0)" stroke="none" style="white-space: pre">Complexité : blocs de 12x18, t = 19 (sur 19), bruit de 15%</tspan></tspan></tspan></text>
 <text class="SVGTextShape"><tspan class="TextParagraph"><tspan class="TextPosition" x="8051" y="9237"><tspan font-family="Arial, sans-serif" font-size="318px" font-weight="400" lengthAdjust="spacingAndGlyphs" textLength="3361" fill="rgb(0,0,0)" stroke="none" style="white-space: pre">nombre de pixels (×10³)</tspan></tspan></tspan></text>
 <text class="SVGTextShape" transform="rotate(-90 824 6791)"><tspan class="TextParagraph"><tspan class="TextPosition" x="824" y="6791"><tspan font-family="Arial, sans-serif" font-size="318px" font-weight="400" lengthAdjust="spacingAndGlyphs" textLength="3636" fill="rgb(0,0,0)" stroke="none" style="white-space: pre">durée du décodage (en s)</tspan></tspan></tspan></text>
</svg>