<?xml version="1.0" encoding="UTF-8"?>
<!DOCTYPE svg PUBLIC "-//W3C//DTD SVG 1.1//EN" "http://www.w3.org/Graphics/SVG/1.1/DTD/svg11.dtd">
<svg width="186mm" height="102mm" viewBox="0 0 18600 10200" version="1.1" xmlns="http://www.w3.org/2000/svg" xmlns:xlink="http://www.w3.org/1999/xlink" stroke-width="28.222" stroke-linejoin="round" xml:space="preserve">
 <path fill="rgb(255,255,255)" stroke="none" d="M 9304,10210 L -13,10210 -13,-13 18621,-13 18621,10210 9304,10210 Z "/>
 <path fill="none" stroke="rgb(179,179,179)" stroke-linejoin="round" d="M 10173,8378 L 2482,8378 2482,1509 17865,1509 17865,8378 10173,8378 Z "/>
 <path fill="none" stroke="rgb(179,179,179)" stroke-linejoin="round" d="M 17865,8377 L 2482,8377 "/>
 <path fill="none" stroke="rgb(179,179,179)" stroke-linejoin="round" d="M 17865,7613 L 2482,7613 "/>
 <path fill="none" stroke="rgb(179,179,179)" stroke-linejoin="round" d="M 17865,6850 L 2482,6850 "/>
 <path fill="none" stroke="rgb(179,179,179)" stroke-linejoin="round" d="M 17865,6087 L 2482,6087 "/>
 <path fill="none" stroke="rgb(179,179,179)" stroke-linejoin="round" d="M 17865,5323 L 2482,5323 "/>
 <path fill="none" stroke="rgb(179,179,179)" stroke-linejoin="round" d="M 17865,4561 L 2482,4561 "/>
 <path fill="none" stroke="rgb(179,179,179)" stroke-linejoin="round" d="M 17865,3797 L 2482,3797 "/>
 <path fill="none" stroke="rgb(179,179,179)" stroke-linejoin="round" d="M 17865,3034 L 2482,3034 "/>
 <path fill="none" stroke="rgb(179,179,179)" stroke-linejoin="round" d="M 17865,2271 L 2482,2271 "/>
 <path fill="none" stroke="rgb(179,179,179)" stroke-linejoin="round" d="M 17865,1507 L 2482,1507 "/>
 <path fill="none" stroke="rgb(179,179,179)" stroke-linejoin="round" d="M 2482,8527 L 2482,8377 "/>
 <path fill="none" stroke="rgb(179,179,179)" stroke-linejoin="round" d="M 5046,8527 L 5046,8377 "/>
 <path fill="none" stroke="rgb(179,179,179)" stroke-linejoin="round" d="M 7610,8527 L 7610,8377 "/>
 <path fill="none" stroke="rgb(179,179,179)" stroke-linejoin="round" d="M 10173,8527 L 10173,8377 "/>
 <path fill="none" stroke="rgb(179,179,179)" stroke-linejoin="round" d="M 12737,8527 L 12737,8377 "/>
 <path fill="none" stroke="rgb(179,179,179)" stroke-linejoin="round" d="M 15301,8527 L 15301,8377 "/>
 <path fill="none" stroke="rgb(179,179,179)" stroke-linejoin="round" d="M 17865,8527 L 17865,8377 "/>
 <path fill="none" stroke="rgb(179,179,179)" stroke-linejoin="round" d="M 2482,8377 L 17865,8377 "/>
 <path fill="none" stroke="rgb(179,179,179)" stroke-linejoin="round" d="M 2332,8377 L 2482,8377 "/>
 <path fill="none" stroke="rgb(179,179,179)" stroke-linejoin="round" d="M 2332,7613 L 2482,7613 "/>
 <path fill="none" stroke="rgb(179,179,179)" stroke-linejoin="round" d="M 2332,6850 L 2482,6850 "/>
 <path fill="none" stroke="rgb(179,179,179)" stroke-linejoin="round" d="M 2332,6087 L 2482,6087 "/>
 <path fill="none" stroke="rgb(179,179,179)" stroke-linejoin="round" d="M 2332,5323 L 2482,5323 "/>
 <path fill="none" stroke="rgb(179,179,179)" stroke-linejoin="round" d="M 2332,4561 L 2482,4561 "/>
 <path fill="none" stroke="rgb(179,179,179)" stroke-linejoin="round" d="M 2332,3797 L 2482,3797 "/>
 <path fill="none" stroke="rgb(179,179,179)" stroke-linejoin="round" d="M 2332,3034 L 2482,3034 "/>
 <path fill="none" stroke="rgb(179,179,179)" stroke-linejoin="round" d="M 2332,2271 L 2482,2271 "/>
 <path fill="none" stroke="rgb(179,179,179)" stroke-linejoin="round" d="M 2332,1507 L 2482,1507 "/>
 <path fill="none" stroke="rgb(179,179,179)" stroke-linejoin="round" d="M 2482,8377 L 2482,1507 "/>
 <path fill="rgb(0,69,134)" stroke="none" d="M 4528,7755 L 4402,7629 4387,7645 4512,7770 4387,7896 4402,7911 4528,7786 4653,7911 4669,7896 4543,7770 4669,7645 4653,7629 4528,7755 Z "/>
 <path fill="none" stroke="rgb(0,69,134)" stroke-linejoin="round" d="M 4528,7755 L 4402,7629 4387,7645 4512,7770 4387,7896 4402,7911 4528,7786 4653,7911 4669,7896 4543,7770 4669,7645 4653,7629 4528,7755 Z "/>
 <path fill="rgb(0,69,134)" stroke="none" d="M 8647,6578 L 8522,6453 8506,6468 8632,6594 8506,6719 8522,6735 8647,6609 8773,6735 8788,6719 8663,6594 8788,6468 8773,6453 8647,6578 Z "/>
 <path fill="none" stroke="rgb(0,69,134)" stroke-linejoin="round" d="M 8647,6578 L 8522,6453 8506,6468 8632,6594 8506,6719 8522,6735 8647,6609 8773,6735 8788,6719 8663,6594 8788,6468 8773,6453 8647,6578 Z "/>
 <path fill="rgb(0,69,134)" stroke="none" d="M 4595,7698 L 4469,7572 4454,7588 4579,7713 4454,7839 4469,7854 4595,7729 4720,7854 4736,7839 4610,7713 4736,7588 4720,7572 4595,7698 Z "/>
 <path fill="none" stroke="rgb(0,69,134)" stroke-linejoin="round" d="M 4595,7698 L 4469,7572 4454,7588 4579,7713 4454,7839 4469,7854 4595,7729 4720,7854 4736,7839 4610,7713 4736,7588 4720,7572 4595,7698 Z "/>
 <path fill="rgb(0,69,134)" stroke="none" d="M 8689,6540 L 8564,6414 8548,6430 8673,6555 8548,6681 8564,6696 8689,6571 8814,6696 8830,6681 8705,6555 8830,6430 8814,6414 8689,6540 Z "/>
 <path fill="none" stroke="rgb(0,69,134)" stroke-linejoin="round" d="M 8689,6540 L 8564,6414 8548,6430 8673,6555 8548,6681 8564,6696 8689,6571 8814,6696 8830,6681 8705,6555 8830,6430 8814,6414 8689,6540 Z "/>
 <path fill="rgb(0,69,134)" stroke="none" d="M 4431,7638 L 4306,7513 4290,7529 4416,7654 4290,7779 4306,7795 4431,7670 4557,7795 4572,7779 4447,7654 4572,7529 4557,7513 4431,7638 Z "/>
 <path fill="none" stroke="rgb(0,69,134)" stroke-linejoin="round" d="M 4431,7638 L 4306,7513 4290,7529 4416,7654 4290,7779 4306,7795 4431,7670 4557,7795 4572,7779 4447,7654 4572,7529 4557,7513 4431,7638 Z "/>
 <path fill="rgb(0,69,134)" stroke="none" d="M 10280,6011 L 10155,5885 10139,5901 10265,6026 10139,6152 10155,6167 10280,6042 10406,6167 10421,6152 10296,6026 10421,5901 10406,5885 10280,6011 Z "/>
 <path fill="none" stroke="rgb(0,69,134)" stroke-linejoin="round" d="M 10280,6011 L 10155,5885 10139,5901 10265,6026 10139,6152 10155,6167 10280,6042 10406,6167 10421,6152 10296,6026 10421,5901 10406,5885 10280,6011 Z "/>
 <path fill="rgb(0,69,134)" stroke="none" d="M 5078,7455 L 4952,7330 4937,7345 5062,7471 4937,7596 4952,7612 5078,7486 5203,7612 5219,7596 5093,7471 5219,7345 5203,7330 5078,7455 Z "/>
 <path fill="none" stroke="rgb(0,69,134)" stroke-linejoin="round" d="M 5078,7455 L 4952,7330 4937,7345 5062,7471 4937,7596 4952,7612 5078,7486 5203,7612 5219,7596 5093,7471 5219,7345 5203,7330 5078,7455 Z "/>
 <path fill="rgb(0,69,134)" stroke="none" d="M 12865,4675 L 12739,4550 12724,4565 12849,4691 12724,4816 12739,4832 12865,4706 12990,4832 13006,4816 12880,4691 13006,4565 12990,4550 12865,4675 Z "/>
 <path fill="none" stroke="rgb(0,69,134)" stroke-linejoin="round" d="M 12865,4675 L 12739,4550 12724,4565 12849,4691 12724,4816 12739,4832 12865,4706 12990,4832 13006,4816 12880,4691 13006,4565 12990,4550 12865,4675 Z "/>
 <path fill="rgb(0,69,134)" stroke="none" d="M 4260,7562 L 4135,7437 4119,7453 4245,7578 4119,7703 4135,7719 4260,7594 4386,7719 4401,7703 4276,7578 4401,7453 4386,7437 4260,7562 Z "/>
 <path fill="none" stroke="rgb(0,69,134)" stroke-linejoin="round" d="M 4260,7562 L 4135,7437 4119,7453 4245,7578 4119,7703 4135,7719 4260,7594 4386,7719 4401,7703 4276,7578 4401,7453 4386,7437 4260,7562 Z "/>
 <path fill="rgb(0,69,134)" stroke="none" d="M 9615,6057 L 9489,5931 9474,5947 9599,6072 9474,6198 9489,6213 9615,6088 9740,6213 9756,6198 9630,6072 9756,5947 9740,5931 9615,6057 Z "/>
 <path fill="none" stroke="rgb(0,69,134)" stroke-linejoin="round" d="M 9615,6057 L 9489,5931 9474,5947 9599,6072 9474,6198 9489,6213 9615,6088 9740,6213 9756,6198 9630,6072 9756,5947 9740,5931 9615,6057 Z "/>
 <path fill="rgb(0,69,134)" stroke="none" d="M 5078,7449 L 4952,7323 4937,7339 5062,7464 4937,7590 4952,7605 5078,7480 5203,7605 5219,7590 5093,7464 5219,7339 5203,7323 5078,7449 Z "/>
 <path fill="none" stroke="rgb(0,69,134)" stroke-linejoin="round" d="M 5078,7449 L 4952,7323 4937,7339 5062,7464 4937,7590 4952,7605 5078,7480 5203,7605 5219,7590 5093,7464 5219,7339 5203,7323 5078,7449 Z "/>
 <path fill="rgb(0,69,134)" stroke="none" d="M 12865,4882 L 12739,4757 12724,4772 12849,4898 12724,5023 12739,5039 12865,4913 12990,5039 13006,5023 12880,4898 13006,4772 12990,4757 12865,4882 Z "/>
 <path fill="none" stroke="rgb(0,69,134)" stroke-linejoin="round" d="M 12865,4882 L 12739,4757 12724,4772 12849,4898 12724,5023 12739,5039 12865,4913 12990,5039 13006,5023 12880,4898 13006,4772 12990,4757 12865,4882 Z "/>
 <path fill="rgb(0,69,134)" stroke="none" d="M 2500,8223 L 2374,8098 2359,8113 2484,8239 2359,8364 2374,8380 2500,8254 2625,8380 2641,8364 2515,8239 2641,8113 2625,8098 2500,8223 Z "/>
 <path fill="none" stroke="rgb(0,69,134)" stroke-linejoin="round" d="M 2500,8223 L 2374,8098 2359,8113 2484,8239 2359,8364 2374,8380 2500,8254 2625,8380 2641,8364 2515,8239 2641,8113 2625,8098 2500,8223 Z "/>
 <path fill="rgb(0,69,134)" stroke="none" d="M 2553,8301 L 2427,8176 2412,8192 2537,8317 2412,8442 2427,8458 2553,8333 2678,8458 2694,8442 2568,8317 2694,8192 2678,8176 2553,8301 Z "/>
 <path fill="none" stroke="rgb(0,69,134)" stroke-linejoin="round" d="M 2553,8301 L 2427,8176 2412,8192 2537,8317 2412,8442 2427,8458 2553,8333 2678,8458 2694,8442 2568,8317 2694,8192 2678,8176 2553,8301 Z "/>
 <path fill="rgb(0,69,134)" stroke="none" d="M 2643,8220 L 2518,8095 2502,8111 2627,8236 2502,8361 2518,8377 2643,8252 2768,8377 2784,8361 2659,8236 2784,8111 2768,8095 2643,8220 Z "/>
 <path fill="none" stroke="rgb(0,69,134)" stroke-linejoin="round" d="M 2643,8220 L 2518,8095 2502,8111 2627,8236 2502,8361 2518,8377 2643,8252 2768,8377 2784,8361 2659,8236 2784,8111 2768,8095 2643,8220 Z "/>
 <path fill="rgb(0,69,134)" stroke="none" d="M 2766,8168 L 2641,8042 2625,8058 2751,8183 2625,8309 2641,8324 2766,8199 2892,8324 2907,8309 2782,8183 2907,8058 2892,8042 2766,8168 Z "/>
 <path fill="none" stroke="rgb(0,69,134)" stroke-linejoin="round" d="M 2766,8168 L 2641,8042 2625,8058 2751,8183 2625,8309 2641,8324 2766,8199 2892,8324 2907,8309 2782,8183 2907,8058 2892,8042 2766,8168 Z "/>
 <path fill="rgb(0,69,134)" stroke="none" d="M 3927,7877 L 3801,7752 3786,7767 3911,7893 3786,8018 3801,8034 3927,7908 4052,8034 4068,8018 3942,7893 4068,7767 4052,7752 3927,7877 Z "/>
 <path fill="none" stroke="rgb(0,69,134)" stroke-linejoin="round" d="M 3927,7877 L 3801,7752 3786,7767 3911,7893 3786,8018 3801,8034 3927,7908 4052,8034 4068,8018 3942,7893 4068,7767 4052,7752 3927,7877 Z "/>
 <path fill="rgb(0,69,134)" stroke="none" d="M 4260,7833 L 4135,7707 4119,7723 4245,7848 4119,7974 4135,7989 4260,7864 4386,7989 4401,7974 4276,7848 4401,7723 4386,7707 4260,7833 Z "/>
 <path fill="none" stroke="rgb(0,69,134)" stroke-linejoin="round" d="M 4260,7833 L 4135,7707 4119,7723 4245,7848 4119,7974 4135,7989 4260,7864 4386,7989 4401,7974 4276,7848 4401,7723 4386,7707 4260,7833 Z "/>
 <path fill="rgb(0,69,134)" stroke="none" d="M 4639,7599 L 4514,7473 4498,7489 4624,7614 4498,7740 4514,7755 4639,7630 4765,7755 4780,7740 4655,7614 4780,7489 4765,7473 4639,7599 Z "/>
 <path fill="none" stroke="rgb(0,69,134)" stroke-linejoin="round" d="M 4639,7599 L 4514,7473 4498,7489 4624,7614 4498,7740 4514,7755 4639,7630 4765,7755 4780,7740 4655,7614 4780,7489 4765,7473 4639,7599 Z "/>
 <path fill="rgb(0,69,134)" stroke="none" d="M 5054,7485 L 4929,7360 4913,7376 5039,7501 4913,7626 4929,7642 5054,7517 5180,7642 5195,7626 5070,7501 5195,7376 5180,7360 5054,7485 Z "/>
 <path fill="none" stroke="rgb(0,69,134)" stroke-linejoin="round" d="M 5054,7485 L 4929,7360 4913,7376 5039,7501 4913,7626 4929,7642 5054,7517 5180,7642 5195,7626 5070,7501 5195,7376 5180,7360 5054,7485 Z "/>
 <path fill="rgb(0,69,134)" stroke="none" d="M 5494,7400 L 5368,7274 5353,7290 5478,7415 5353,7541 5368,7556 5494,7431 5619,7556 5635,7541 5509,7415 5635,7290 5619,7274 5494,7400 Z "/>
 <path fill="none" stroke="rgb(0,69,134)" stroke-linejoin="round" d="M 5494,7400 L 5368,7274 5353,7290 5478,7415 5353,7541 5368,7556 5494,7431 5619,7556 5635,7541 5509,7415 5635,7290 5619,7274 5494,7400 Z "/>
 <path fill="rgb(0,69,134)" stroke="none" d="M 5981,7295 L 5856,7169 5840,7185 5966,7310 5840,7436 5856,7451 5981,7326 6107,7451 6122,7436 5997,7310 6122,7185 6107,7169 5981,7295 Z "/>
 <path fill="none" stroke="rgb(0,69,134)" stroke-linejoin="round" d="M 5981,7295 L 5856,7169 5840,7185 5966,7310 5840,7436 5856,7451 5981,7326 6107,7451 6122,7436 5997,7310 6122,7185 6107,7169 5981,7295 Z "/>
 <path fill="rgb(0,69,134)" stroke="none" d="M 6491,7180 L 6366,7054 6350,7070 6475,7195 6350,7321 6366,7336 6491,7211 6616,7336 6632,7321 6507,7195 6632,7070 6616,7054 6491,7180 Z "/>
 <path fill="none" stroke="rgb(0,69,134)" stroke-linejoin="round" d="M 6491,7180 L 6366,7054 6350,7070 6475,7195 6350,7321 6366,7336 6491,7211 6616,7336 6632,7321 6507,7195 6632,7070 6616,7054 6491,7180 Z "/>
 <path fill="rgb(0,69,134)" stroke="none" d="M 7051,6982 L 6925,6856 6910,6872 7035,6997 6910,7123 6925,7138 7051,7013 7176,7138 7192,7123 7066,6997 7192,6872 7176,6856 7051,6982 Z "/>
 <path fill="none" stroke="rgb(0,69,134)" stroke-linejoin="round" d="M 7051,6982 L 6925,6856 6910,6872 7035,6997 6910,7123 6925,7138 7051,7013 7176,7138 7192,7123 7066,6997 7192,6872 7176,6856 7051,6982 Z "/>
 <path fill="rgb(0,69,134)" stroke="none" d="M 8262,6829 L 8137,6704 8121,6719 8246,6845 8121,6970 8137,6986 8262,6860 8387,6986 8403,6970 8278,6845 8403,6719 8387,6704 8262,6829 Z "/>
 <path fill="none" stroke="rgb(0,69,134)" stroke-linejoin="round" d="M 8262,6829 L 8137,6704 8121,6719 8246,6845 8121,6970 8137,6986 8262,6860 8387,6986 8403,6970 8278,6845 8403,6719 8387,6704 8262,6829 Z "/>
 <path fill="rgb(0,69,134)" stroke="none" d="M 9615,6143 L 9489,6018 9474,6033 9599,6159 9474,6284 9489,6300 9615,6174 9740,6300 9756,6284 9630,6159 9756,6033 9740,6018 9615,6143 Z "/>
 <path fill="none" stroke="rgb(0,69,134)" stroke-linejoin="round" d="M 9615,6143 L 9489,6018 9474,6033 9599,6159 9474,6284 9489,6300 9615,6174 9740,6300 9756,6284 9630,6159 9756,6033 9740,6018 9615,6143 Z "/>
 <path fill="rgb(0,69,134)" stroke="none" d="M 11111,5340 L 10986,5215 10970,5230 11095,5356 10970,5481 10986,5497 11111,5371 11236,5497 11252,5481 11127,5356 11252,5230 11236,5215 11111,5340 Z "/>
 <path fill="none" stroke="rgb(0,69,134)" stroke-linejoin="round" d="M 11111,5340 L 10986,5215 10970,5230 11095,5356 10970,5481 10986,5497 11111,5371 11236,5497 11252,5481 11127,5356 11252,5230 11236,5215 11111,5340 Z "/>
 <path fill="rgb(0,69,134)" stroke="none" d="M 12749,4444 L 12624,4319 12608,4334 12734,4460 12608,4585 12624,4601 12749,4475 12875,4601 12890,4585 12765,4460 12890,4334 12875,4319 12749,4444 Z "/>
 <path fill="none" stroke="rgb(0,69,134)" stroke-linejoin="round" d="M 12749,4444 L 12624,4319 12608,4334 12734,4460 12608,4585 12624,4601 12749,4475 12875,4601 12890,4585 12765,4460 12890,4334 12875,4319 12749,4444 Z "/>
 <path fill="rgb(0,69,134)" stroke="none" d="M 14530,3480 L 14405,3354 14389,3370 14514,3495 14389,3621 14405,3636 14530,3511 14655,3636 14671,3621 14546,3495 14671,3370 14655,3354 14530,3480 Z "/>
 <path fill="none" stroke="rgb(0,69,134)" stroke-linejoin="round" d="M 14530,3480 L 14405,3354 14389,3370 14514,3495 14389,3621 14405,3636 14530,3511 14655,3636 14671,3621 14546,3495 14671,3370 14655,3354 14530,3480 Z "/>
 <path fill="rgb(0,69,134)" stroke="none" d="M 16453,2117 L 16328,1992 16312,2007 16437,2133 16312,2258 16328,2274 16453,2148 16578,2274 16594,2258 16469,2133 16594,2007 16578,1992 16453,2117 Z "/>
 <path fill="none" stroke="rgb(0,69,134)" stroke-linejoin="round" d="M 16453,2117 L 16328,1992 16312,2007 16437,2133 16312,2258 16328,2274 16453,2148 16578,2274 16594,2258 16469,2133 16594,2007 16578,1992 16453,2117 Z "/>
 <path fill="rgb(0,69,134)" stroke="none" d="M 2500,8223 L 2374,8098 2359,8113 2484,8239 2359,8364 2374,8380 2500,8254 2625,8380 2641,8364 2515,8239 2641,8113 2625,8098 2500,8223 Z "/>
 <path fill="none" stroke="rgb(0,69,134)" stroke-linejoin="round" d="M 2500,8223 L 2374,8098 2359,8113 2484,8239 2359,8364 2374,8380 2500,8254 2625,8380 2641,8364 2515,8239 2641,8113 2625,8098 2500,8223 Z "/>
 <path fill="rgb(0,69,134)" stroke="none" d="M 2553,8301 L 2427,8176 2412,8192 2537,8317 2412,8442 2427,8458 2553,8333 2678,8458 2694,8442 2568,8317 2694,8192 2678,8176 2553,8301 Z "/>
 <path fill="none" stroke="rgb(0,69,134)" stroke-linejoin="round" d="M 2553,8301 L 2427,8176 2412,8192 2537,8317 2412,8442 2427,8458 2553,8333 2678,8458 2694,8442 2568,8317 2694,8192 2678,8176 2553,8301 Z "/>
 <path fill="rgb(0,69,134)" stroke="none" d="M 2643,8220 L 2518,8095 2502,8111 2627,8236 2502,8361 2518,8377 2643,8252 2768,8377 2784,8361 2659,8236 2784,8111 2768,8095 2643,8220 Z "/>
 <path fill="none" stroke="rgb(0,69,134)" stroke-linejoin="round" d="M 2643,8220 L 2518,8095 2502,8111 2627,8236 2502,8361 2518,8377 2643,8252 2768,8377 2784,8361 2659,8236 2784,8111 2768,8095 2643,8220 Z "/>
 <path fill="rgb(0,69,134)" stroke="none" d="M 2766,8168 L 2641,8042 2625,8058 2751,8183 2625,8309 2641,8324 2766,8199 2892,8324 2907,8309 2782,8183 2907,8058 2892,8042 2766,8168 Z "/>
 <path fill="none" stroke="rgb(0,69,134)" stroke-linejoin="round" d="M 2766,8168 L 2641,8042 2625,8058 2751,8183 2625,8309 2641,8324 2766,8199 2892,8324 2907,8309 2782,8183 2907,8058 2892,8042 2766,8168 Z "/>
 <path fill="rgb(0,69,134)" stroke="none" d="M 3927,7877 L 3801,7752 3786,7767 3911,7893 3786,8018 3801,8034 3927,7908 4052,8034 4068,8018 3942,7893 4068,7767 4052,7752 3927,7877 Z "/>
 <path fill="none" stroke="rgb(0,69,134)" stroke-linejoin="round" d="M 3927,7877 L 3801,7752 3786,7767 3911,7893 3786,8018 3801,8034 3927,7908 4052,8034 4068,8018 3942,7893 4068,7767 4052,7752 3927,7877 Z "/>
 <path fill="rgb(0,69,134)" stroke="none" d="M 4260,7833 L 4135,7707 4119,7723 4245,7848 4119,7974 4135,7989 4260,7864 4386,7989 4401,7974 4276,7848 4401,7723 4386,7707 4260,7833 Z "/>
 <path fill="none" stroke="rgb(0,69,134)" stroke-linejoin="round" d="M 4260,7833 L 4135,7707 4119,7723 4245,7848 4119,7974 4135,7989 4260,7864 4386,7989 4401,7974 4276,7848 4401,7723 4386,7707 4260,7833 Z "/>
 <path fill="rgb(0,69,134)" stroke="none" d="M 4639,7599 L 4514,7473 4498,7489 4624,7614 4498,7740 4514,7755 4639,7630 4765,7755 4780,7740 4655,7614 4780,7489 4765,7473 4639,7599 Z "/>
 <path fill="none" stroke="rgb(0,69,134)" stroke-linejoin="round" d="M 4639,7599 L 4514,7473 4498,7489 4624,7614 4498,7740 4514,7755 4639,7630 4765,7755 4780,7740 4655,7614 4780,7489 4765,7473 4639,7599 Z "/>
 <path fill="rgb(0,69,134)" stroke="none" d="M 5054,7485 L 4929,7360 4913,7376 5039,7501 4913,7626 4929,7642 5054,7517 5180,7642 5195,7626 5070,7501 5195,7376 5180,7360 5054,7485 Z "/>
 <path fill="none" stroke="rgb(0,69,134)" stroke-linejoin="round" d="M 5054,7485 L 4929,7360 4913,7376 5039,7501 4913,7626 4929,7642 5054,7517 5180,7642 5195,7626 5070,7501 5195,7376 5180,7360 5054,7485 Z "/>
 <path fill="rgb(0,69,134)" stroke="none" d="M 5494,7400 L 5368,7274 5353,7290 5478,7415 5353,7541 5368,7556 5494,7431 5619,7556 5635,7541 5509,7415 5635,7290 5619,7274 5494,7400 Z "/>
 <path fill="none" stroke="rgb(0,69,134)" stroke-linejoin="round" d="M 5494,7400 L 5368,7274 5353,7290 5478,7415 5353,7541 5368,7556 5494,7431 5619,7556 5635,7541 5509,7415 5635,7290 5619,7274 5494,7400 Z "/>
 <path fill="rgb(0,69,134)" stroke="none" d="M 5981,7295 L 5856,7169 5840,7185 5966,7310 5840,7436 5856,7451 5981,7326 6107,7451 6122,7436 5997,7310 6122,7185 6107,7169 5981,7295 Z "/>
 <path fill="none" stroke="rgb(0,69,134)" stroke-linejoin="round" d="M 5981,7295 L 5856,7169 5840,7185 5966,7310 5840,7436 5856,7451 5981,7326 6107,7451 6122,7436 5997,7310 6122,7185 6107,7169 5981,7295 Z "/>
 <path fill="rgb(0,69,134)" stroke="none" d="M 6491,7180 L 6366,7054 6350,7070 6475,7195 6350,7321 6366,7336 6491,7211 6616,7336 6632,7321 6507,7195 6632,7070 6616,7054 6491,7180 Z "/>
 <path fill="none" stroke="rgb(0,69,134)" stroke-linejoin="round" d="M 6491,7180 L 6366,7054 6350,7070 6475,7195 6350,7321 6366,7336 6491,7211 6616,7336 6632,7321 6507,7195 6632,7070 6616,7054 6491,7180 Z "/>
 <path fill="rgb(0,69,134)" stroke="none" d="M 7051,6982 L 6925,6856 6910,6872 7035,6997 6910,7123 6925,7138 7051,7013 7176,7138 7192,7123 7066,6997 7192,6872 7176,6856 7051,6982 Z "/>
 <path fill="none" stroke="rgb(0,69,134)" stroke-linejoin="round" d="M 7051,6982 L 6925,6856 6910,6872 7035,6997 6910,7123 6925,7138 7051,7013 7176,7138 7192,7123 7066,6997 7192,6872 7176,6856 7051,6982 Z "/>
 <path fill="none" stroke="rgb(0,69,134)" stroke-linejoin="round" d="M 2500,8161 L 2657,8135 2813,8108 2970,8080 3127,8051 3284,8022 3441,7991 3597,7960 3754,7928 3911,7895 4068,7860 4224,7826 4381,7790 4538,7753 4695,7715 4852,7677 5008,7638 5165,7597 5322,7556 5479,7514 5636,7471 5792,7427 5949,7383 6106,7337 6263,7291 6420,7243 6576,7195 6733,7146 6890,7096 7047,7045 7203,6993 7360,6941 7517,6887 7674,6833 7831,6777 7987,6721 8144,6664 8301,6606 8458,6547 8615,6487 8771,6427 8928,6365 9085,6303 9242,6239 9397,6175 9554,6110 9711,6044 9868,5977 10025,5910 10181,5841 10338,5771 10495,5701 10652,5630 10809,5558 10965,5485 11122,5411 11279,5336 11436,5260 11593,5183 11749,5106 11906,5029 12063,4949 12220,4869 12376,4788 12533,4706 12690,4623 12847,4540 13004,4455 13160,4370 13317,4283 13474,4196 13631,4108 13788,4019 13944,3929 14101,3838 14258,3747 14415,3654 14572,3561 14728,3466 14885,3371 15042,3275 15199,3178 15355,3080 15512,2981 15669,2882 15826,2781 15983,2680 16139,2577 16296,2474 16453,2370 "/>
 <text class="SVGTextShape"><tspan class="TextParagraph"><tspan class="TextPosition" x="2385" y="8945"><tspan font-family="Arial, sans-serif" font-size="353px" font-weight="400" lengthAdjust="spacingAndGlyphs" textLength="191" fill="rgb(0,0,0)" stroke="none" style="white-space: pre">0</tspan></tspan></tspan></text>
 <text class="SVGTextShape"><tspan class="TextParagraph"><tspan class="TextPosition" x="4758" y="8945"><tspan font-family="Arial, sans-serif" font-size="353px" font-weight="400" lengthAdjust="spacingAndGlyphs" textLength="573" fill="rgb(0,0,0)" stroke="none" style="white-space: pre">200</tspan></tspan></tspan></text>
 <text class="SVGTextShape"><tspan class="TextParagraph"><tspan class="TextPosition" x="7322" y="8945"><tspan font-family="Arial, sans-serif" font-size="353px" font-weight="400" lengthAdjust="spacingAndGlyphs" textLength="573" fill="rgb(0,0,0)" stroke="none" style="white-space: pre">400</tspan></tspan></tspan></text>
 <text class="SVGTextShape"><tspan class="TextParagraph"><tspan class="TextPosition" x="9885" y="8945"><tspan font-family="Arial, sans-serif" font-size="353px" font-weight="400" lengthAdjust="spacingAndGlyphs" textLength="573" fill="rgb(0,0,0)" stroke="none" style="white-space: pre">600</tspan></tspan></tspan></text>
 <text class="SVGTextShape"><tspan class="TextParagraph"><tspan class="TextPosition" x="12449" y="8945"><tspan font-family="Arial, sans-serif" font-size="353px" font-weight="400" lengthAdjust="spacingAndGlyphs" textLength="573" fill="rgb(0,0,0)" stroke="none" style="white-space: pre">800</tspan></tspan></tspan></text>
 <text class="SVGTextShape"><tspan class="TextParagraph"><tspan class="TextPosition" x="14917" y="8945"><tspan font-family="Arial, sans-serif" font-size="353px" font-weight="400" lengthAdjust="spacingAndGlyphs" textLength="765" fill="rgb(0,0,0)" stroke="none" style="white-space: pre">1000</tspan></tspan></tspan></text>
 <text class="SVGTextShape"><tspan class="TextParagraph"><tspan class="TextPosition" x="17481" y="8945"><tspan font-family="Arial, sans-serif" font-size="353px" font-weight="400" lengthAdjust="spacingAndGlyphs" textLength="765" fill="rgb(0,0,0)" stroke="none" style="white-space: pre">1200</tspan></tspan></tspan></text>
 <text class="SVGTextShape"><tspan class="TextParagraph"><tspan class="TextPosition" x="1562" y="8497"><tspan font-family="Arial, sans-serif" font-size="353px" font-weight="400" lengthAdjust="spacingAndGlyphs" textLength="669" fill="rgb(0,0,0)" stroke="none" style="white-space: pre">0,00</tspan></tspan></tspan></text>
 <text class="SVGTextShape"><tspan class="TextParagraph"><tspan class="TextPosition" x="1370" y="7733"><tspan font-family="Arial, sans-serif" font-size="353px" font-weight="400" lengthAdjust="spacingAndGlyphs" textLength="860" fill="rgb(0,0,0)" stroke="none" style="white-space: pre">10,00</tspan></tspan></tspan></text>
 <text class="SVGTextShape"><tspan class="TextParagraph"><tspan class="TextPosition" x="1370" y="6970"><tspan font-family="Arial, sans-serif" font-size="353px" font-weight="400" lengthAdjust="spacingAndGlyphs" textLength="860" fill="rgb(0,0,0)" stroke="none" style="white-space: pre">20,00</tspan></tspan></tspan></text>
 <text class="SVGTextShape"><tspan class="TextParagraph"><tspan class="TextPosition" x="1370" y="6207"><tspan font-family="Arial, sans-serif" font-size="353px" font-weight="400" lengthAdjust="spacingAndGlyphs" textLength="860" fill="rgb(0,0,0)" stroke="none" style="white-space: pre">30,00</tspan></tspan></tspan></text>
 <text class="SVGTextShape"><tspan class="TextParagraph"><tspan class="TextPosition" x="1370" y="5443"><tspan font-family="Arial, sans-serif" font-size="353px" font-weight="400" lengthAdjust="spacingAndGlyphs" textLength="860" fill="rgb(0,0,0)" stroke="none" style="white-space: pre">40,00</tspan></tspan></tspan></text>
 <text class="SVGTextShape"><tspan class="TextParagraph"><tspan class="TextPosition" x="1370" y="4681"><tspan font-family="Arial, sans-serif" font-size="353px" font-weight="400" lengthAdjust="spacingAndGlyphs" textLength="860" fill="rgb(0,0,0)" stroke="none" style="white-space: pre">50,00</tspan></tspan></tspan></text>
 <text class="SVGTextShape"><tspan class="TextParagraph"><tspan class="TextPosition" x="1370" y="3917"><tspan font-family="Arial, sans-serif" font-size="353px" font-weight="400" lengthAdjust="spacingAndGlyphs" textLength="860" fill="rgb(0,0,0)" stroke="none" style="white-space: pre">60,00</tspan></tspan></tspan></text>
 <text class="SVGTextShape"><tspan class="TextParagraph"><tspan class="TextPosition" x="1370" y="3154"><tspan font-family="Arial, sans-serif" font-size="353px" font-weight="400" lengthAdjust="spacingAndGlyphs" textLength="860" fill="rgb(0,0,0)" stroke="none" style="white-space: pre">70,00</tspan></tspan></tspan></text>
 <text class="SVGTextShape"><tspan class="TextParagraph"><tspan class="TextPosition" x="1370" y="2391"><tspan font-family="Arial, sans-serif" font-size="353px" font-weight="400" lengthAdjust="spacingAndGlyphs" textLength="860" fill="rgb(0,0,0)" stroke="none" style="white-space: pre">80,00</tspan></tspan></tspan></text>
 <text class="SVGTextShape"><tspan class="TextParagraph"><tspan class="TextPosition" x="1370" y="1627"><tspan font-family="Arial, sans-serif" font-size="353px" font-weight="400" lengthAdjust="spacingAndGlyphs" textLength="860" fill="rgb(0,0,0)" stroke="none" style="white-space: pre">90,00</tspan></tspan></tspan></text>
 <text class="SVGTextShape"><tspan class="TextParagraph"><tspan class="TextPosition" x="2632" y="2168"><tspan font-family="Calibri, sans-serif" font-size="353px" font-weight="400" lengthAdjust="spacingAndGlyphs" textLength="5926" fill="rgb(0,0,0)" stroke="none" style="white-space: pre">f(x) = 3,88E-5 x² + 2,73E-2 x + 2,78E+0</tspan></tspan></tspan><tspan class="TextParagraph"><tspan class="TextPosition" x="2632" y="2644"><tspan font-family="Calibri, sans-serif" font-size="353px" font-weight="400" lengthAdjust="spacingAndGlyphs" textLength="1891" fill="rgb(0,0,0)" stroke="none" style="white-space: pre">R² = 9,91E-1</tspan></tspan></tspan></text>
 <text class="SVGTextShape"><tspan class="TextParagraph"><tspan class="TextPosition" x="3684" y="862"><tspan font-family="Arial, sans-serif" font-size="459px" font-weight="400" lengthAdjust="spacingAndGlyphs" textLength="11237" fill="rgb(0,0,0)" stroke="none" style="white-space: pre">Complexité : blocs de 12x18, t = 19 (sur 19), bruit de 4%</tspan></tspan></tspan></text>
 <text class="SVGTextShape"><tspan class="TextParagraph"><tspan class="TextPosition" x="8128" y="9615"><tspan font-family="Arial, sans-serif" font-size="318px" font-weight="400" lengthAdjust="spacingAndGlyphs" textLength="3361" fill="rgb(0,0,0)" stroke="none" style="white-space: pre">nombre de pixels (×10³)</tspan></tspan></tspan></text>
 <text class="SVGTextShape" transform="rotate(-90 823 6984)"><tspan class="TextParagraph"><tspan class="TextPosition" x="823" y="6984"><tspan font-family="Arial, sans-serif" font-size="318px" font-weight="400" lengthAdjust="spacingAndGlyphs" textLength="3636" fill="rgb(0,0,0)" stroke="none" style="white-space: pre">durée du décodage (en s)</tspan></tspan></tspan></text>
</svg>